<svg width="115" height="140" xmlns="http://www.w3.org/2000/svg"><path d="M57.038 10.495l.003-.72c.07-.016.14-.003.209-.027.097-.032.184-.079.272-.122a2.22 2.22 0 0 0 1.236-2.22L62.885 0a24.32 24.32 0 0 1 1.85.123L58.06 12.107a2.345 2.345 0 0 0-1.026-.574l.005-1.038zM0 93.774h11.897v3.56H3.99v8.014h6.889v3.562H3.99v11.279H0V93.774zm19.477 0h3.345l6.258 26.415h-4.014l-1.181-5.677h-5.47l-1.182 5.677h-4.015l6.259-26.415zm1.692 7.605h-.08l-1.967 9.571h4.016l-1.97-9.571zm10.555-7.605h3.639l5.718 15.915h.073V93.774h3.789v26.415h-3.566l-5.791-15.88h-.075v15.88h-3.787V93.774zm31.724 8.082h-3.852v-.881c0-.893-.207-1.666-.623-2.317-.415-.652-1.114-.978-2.096-.978-.529 0-.963.103-1.302.307-.34.205-.606.466-.794.785-.189.32-.32.69-.397 1.111a7.457 7.457 0 0 0-.112 1.322c0 .537.019.99.055 1.36.038.37.133.69.284.958.15.268.371.505.661.71.29.203.686.407 1.19.611l2.946 1.188c.855.332 1.547.722 2.076 1.168.53.448.938.971 1.228 1.572.289.6.485 1.29.586 2.068.1.78.15 1.667.15 2.663 0 1.15-.113 2.216-.34 3.198-.226.984-.598 1.827-1.114 2.53-.516.702-1.203 1.257-2.058 1.666-.856.408-1.901.612-3.134.612-.932 0-1.8-.166-2.606-.498a6.29 6.29 0 0 1-2.077-1.36 6.378 6.378 0 0 1-1.379-2.05 6.44 6.44 0 0 1-.51-2.566v-1.456h3.853v1.226c0 .715.208 1.36.623 1.935.415.575 1.113.862 2.096.862.655 0 1.164-.096 1.53-.287.364-.192.641-.46.83-.805.189-.344.308-.772.358-1.283.051-.51.076-1.073.076-1.686 0-.715-.025-1.302-.076-1.762-.05-.46-.157-.83-.32-1.111a1.956 1.956 0 0 0-.68-.689 8.87 8.87 0 0 0-1.152-.576l-2.757-1.15c-1.661-.688-2.776-1.602-3.343-2.738-.566-1.137-.848-2.56-.848-4.27 0-1.023.137-1.994.415-2.913.277-.92.685-1.711 1.227-2.376a5.872 5.872 0 0 1 2.058-1.59c.83-.395 1.8-.592 2.908-.592.957 0 1.831.177 2.625.535.793.358 1.473.83 2.039 1.417a6.295 6.295 0 0 1 1.303 1.973 5.79 5.79 0 0 1 .453 2.24v1.917zm5.288-8.082h5.371c1.177 0 2.181.185 3.01.556.83.37 1.508.866 2.037 1.484.528.619.907 1.33 1.136 2.133.228.804.342 1.64.342 2.504v.965c0 .717-.054 1.323-.162 1.818-.108.495-.27.928-.487 1.298-.216.371-.481.699-.793.983a6.959 6.959 0 0 1-1.08.799c.864.42 1.5 1.044 1.91 1.873.408.829.612 1.935.612 3.32v1.485c0 2.325-.547 4.105-1.64 5.342-1.094 1.238-2.842 1.855-5.246 1.855h-5.01V93.774zm3.677 22.63h1.586c.744 0 1.328-.11 1.749-.334.42-.222.738-.531.955-.927.216-.395.348-.866.396-1.41.048-.544.072-1.137.072-1.78 0-.668-.036-1.25-.108-1.743-.072-.496-.222-.91-.45-1.244a2.126 2.126 0 0 0-.956-.76c-.409-.173-.95-.26-1.622-.26h-1.622v8.459zm0-11.797h1.658c1.226 0 2.05-.316 2.47-.947.42-.63.63-1.551.63-2.764 0-1.186-.234-2.077-.703-2.67-.468-.595-1.315-.891-2.54-.891h-1.515v7.272zM87.24 93.774h11.897v3.56h-7.905v7.755h6.888v3.561h-6.888v7.754h7.905v3.785H87.24V93.774zm19.155 3.56h-4.614v-3.56H115v3.56h-4.615v22.855h-3.989V97.335zM11.896 140v-9.245h1.266v7.986h4.022V140h-5.287zm12.341-.97c-.632.624-1.446.97-2.427.97-.981 0-1.781-.346-2.413-.97-.904-.895-.891-1.904-.891-3.654 0-1.748-.013-2.758.891-3.65.632-.627 1.432-.971 2.413-.971.98 0 1.795.344 2.427.97.903.893.878 1.903.878 3.651 0 1.75.025 2.759-.878 3.653zm-1.058-6.475c-.324-.344-.827-.562-1.369-.562s-1.045.218-1.368.562c-.451.485-.543.995-.543 2.821 0 1.827.092 2.337.543 2.823.323.345.826.562 1.368.562.542 0 1.045-.217 1.369-.562.451-.486.541-.996.541-2.823 0-1.826-.09-2.336-.541-2.821zm7.23 3.64V140h-1.336v-3.804l-2.636-5.441h1.46l1.845 4.064 1.844-4.064h1.46l-2.636 5.44zM40.803 140l-.639-1.857h-3.659L35.866 140h-1.498l3.4-9.245H38.9L42.299 140h-1.497zm-2.436-7.155l-1.446 4.103h2.853l-1.407-4.103zM43.62 140v-9.245h1.265v7.986h4.022V140h-5.287zm10.627-7.986V140h-1.427v-7.986H50.23v-1.26h6.61v1.26h-2.592zm7.886 4.182V140h-1.337v-3.804l-2.636-5.441h1.46l1.845 4.064 1.844-4.064h1.46l-2.636 5.44zM78.316 140h-1.172l-1.805-6.48-1.794 6.48h-1.17l-2.318-9.245h1.42l1.545 6.609 1.781-6.61h1.083l1.782 6.61 1.545-6.61h1.42L78.315 140zm3.638 0v-9.245h1.322V140h-1.322zm10.676 0l-4.057-6.505V140H87.24v-9.245h1.22l4.057 6.492v-6.492h1.333V140H92.63zm7.143 0c-1.393 0-2.394-.32-3.279-1.2l.936-.907c.677.664 1.419.869 2.368.869 1.21 0 1.913-.512 1.913-1.393 0-.396-.117-.727-.365-.944-.234-.217-.468-.307-1.015-.384l-1.092-.153c-.755-.103-1.353-.358-1.757-.728-.455-.421-.676-.996-.676-1.736 0-1.584 1.171-2.67 3.097-2.67 1.223 0 2.081.307 2.875 1.035l-.898.869c-.572-.537-1.236-.703-2.016-.703-1.093 0-1.692.613-1.692 1.418 0 .332.104.626.35.842.236.204.613.357 1.042.422l1.054.153c.86.128 1.34.332 1.73.676.508.436.755 1.086.755 1.865 0 1.673-1.392 2.669-3.33 2.669zm-6.348-90.189c.184.935.31 1.849.39 2.746l-11.18 20.068c-.84.46-1.715.89-2.633 1.281l13.423-24.095zm-3.16-8.292c.34.536.662 1.108.966 1.713l-18.4 33.031-2.3.683L90.266 41.52zm-4.927-5.116c.458.31.91.65 1.352 1.019l-8.318 14.933a11.776 11.776 0 0 0-.367-1.688c-.07-.232-.152-.456-.234-.68l7.567-13.584zM71.023 62.728a14.268 14.268 0 0 0 1.993-.761l-9.504 17.065-2.3.682 9.392-16.862.42-.124zM56.9 76.242c.2-.068.379-.168.546-.282l-.724 1.3.005-.997c.057-.013.115-.002.173-.02zM79.05 33.73a19.5 19.5 0 0 1 1.668.451L74.447 45.44a8.112 8.112 0 0 0-1.463-.819l6.066-10.89zM61.285 65.62l2.3-.683-5.172 9.282a2.201 2.201 0 0 0-.108-.797 2.07 2.07 0 0 0-.79-1.033l3.77-6.769zM82.15 15.393c.156.521.286 1.039.393 1.55L67.433 44.07c-.6.096-1.214.225-1.856.415l-.355.106L81.91 14.635c.082.25.164.5.24.758zm-3.993-7.981c.376.483.735.987 1.074 1.514L58.47 46.197c.026-.267.011-.54-.08-.812a2.07 2.07 0 0 0-.805-1.042L66.8 27.797c.343-.481.626-.99.847-1.52L78.157 7.411zm-5.203-4.623c.481.288.95.596 1.402.927L66.58 17.675a8.003 8.003 0 0 0-1.151-1.378L72.954 2.79zM66.517.38c.58.11 1.145.242 1.7.395l-7.464 13.4a10.84 10.84 0 0 0-1.89-.052L66.516.38zM58.848.185C59.53.107 60.201.051 60.861.02l-3.197 5.739a2.431 2.431 0 0 0-.603-.249l.008-1.748c.079-.017.158-.003.236-.03A2.225 2.225 0 0 0 58.71.912c-.03-.094-.077-.178-.122-.262l.26-.465zm35.003 55.92a19.537 19.537 0 0 1-1.255 5.696l-2.536 4.554c-1.187 1.578-2.625 3.002-4.29 4.255l8.08-14.505zm-1.101-9.022c.032.107.057.214.088.32L77.557 74.837c-.398.133-.8.262-1.21.383l-1.105.328 16.881-30.304a25.9 25.9 0 0 1 .627 1.84zm-4.732-8.431c.402.416.791.865 1.168 1.346L68.222 77.632l-2.3.683L76.41 59.488a8.216 8.216 0 0 0 1.68-3.013l9.929-17.823zm-22.021 25.57l2.3-.685-9.394 16.864-.615.181c.076-.372.093-.759-.037-1.145a2.024 2.024 0 0 0-.372-.643l8.118-14.573zM82.387 34.8c.502.215 1.008.456 1.512.728l-7.01 12.584a9.238 9.238 0 0 0-1.095-1.48L82.386 34.8zm.527-14.912a17.769 17.769 0 0 1-.272 3.935l-11.3 20.285a9.654 9.654 0 0 0-1.81-.196l13.382-24.024zM57.9 66.626l1.078-.321-.617 1.107-.002-.007c-.1-.3-.26-.56-.46-.779zm-1.146 3.625c.009-.002.018 0 .028-.003l-.028.049v-.046zm23.506-59.556c.313.6.606 1.222.878 1.867L62.913 45.277l-2.3.683L80.26 10.695zm-4.514-5.86c.43.382.846.786 1.244 1.212l-8.84 15.87a10.78 10.78 0 0 0-.605-2.362l8.2-14.72zM60.763 31.731a14.62 14.62 0 0 0 2.465-.981l-4.793 8.604c-.209-.606-.667-1.027-1.216-1.261l3.544-6.362zM69.92 1.33c.53.198 1.046.42 1.549.662l-7.396 13.277a7.91 7.91 0 0 0-1.526-.706L69.921 1.33zM53.578 80.897c.112.331.307.603.539.838l-9.35 2.793L22.47 10.33l29.883-8.931c.532-.159 1.043-.261 1.563-.39-.13.428-.17.886-.016 1.343.249.735.857 1.216 1.556 1.402l-.006 1.767c-.063.015-.127.003-.19.024a2.227 2.227 0 0 0-1.403 2.825c.25.744.872 1.228 1.58 1.409l-.004 1.755c-.073.018-.146.004-.217.028a2.227 2.227 0 0 0-1.402 2.825c.072.214.2.387.326.561l-13.263 3.964 5.135 17.09 7.677-2.293c-.064.357-.072.725.053 1.093.256.756.89 1.247 1.615 1.418l-.004 1.743c-.085.018-.169.004-.252.032a2.226 2.226 0 0 0-1.402 2.823c.259.767.905 1.263 1.641 1.427l-.006 1.732c-.092.019-.184.004-.277.036a2.227 2.227 0 0 0-1.402 2.823c.124.364.35.65.614.896l-4.343 1.297 5.115 17.024a2.223 2.223 0 0 0-1.377 2.81c.252.747.877 1.235 1.591 1.412l-.005 1.753c-.077.017-.152.003-.227.029a2.228 2.228 0 0 0-1.403 2.824c.257.756.892 1.248 1.617 1.418l-.005 1.743c-.084.018-.168.003-.252.032a2.228 2.228 0 0 0-1.403 2.824z" fill="#FFFFFF" fill-rule="evenodd"/></svg>
