<svg width="231" height="59" xmlns="http://www.w3.org/2000/svg"><g fill="#FFFFFF" fill-rule="nonzero"><path d="M72.207 22.578h-6.59l-.92 5.322h6.128l-.815 4.687h-6.093l-1.772 10.045H56.76l4.358-24.953h11.94l-.85 4.899zm10.948 20.054l-.107-4.687h-5.845l-1.878 4.687h-5.669L80.533 17.68h6.838l1.31 24.953h-5.526zm-.248-19.56h-.142L78.62 33.785h4.5l-.213-10.715zm24.835 19.56h-5.845L98.602 27.09h-.107l-2.55 15.543h-4.89l4.358-24.953h5.988l3.153 15.754h.141l2.622-15.754h4.783l-4.358 24.953zm20.301-20.336h-4.606l-3.578 20.336h-5.385l3.578-20.336h-4.606l.815-4.617h14.597l-.815 4.617zm9.991 20.336l-.106-4.687h-5.846l-1.878 4.687h-5.668l10.876-24.953h6.838l1.311 24.953h-5.527zm-.248-19.56h-.142L133.5 33.785h4.5l-.213-10.715zm22.002.317a4.258 4.258 0 0 0-1.488-1.11 4.38 4.38 0 0 0-1.843-.406c-.33 0-.679.065-1.045.194a3.02 3.02 0 0 0-.992.581 3.266 3.266 0 0 0-.744.97c-.2.387-.301.851-.301 1.392 0 .681.207 1.245.62 1.692.413.446 1.033.904 1.86 1.374.472.282.974.617 1.506 1.005a7.997 7.997 0 0 1 1.452 1.374 7.03 7.03 0 0 1 1.08 1.833c.284.693.426 1.498.426 2.414 0 1.433-.242 2.685-.726 3.754s-1.134 1.962-1.949 2.678a8.115 8.115 0 0 1-2.781 1.604 9.97 9.97 0 0 1-3.224.529c-1.535 0-2.94-.259-4.216-.776-1.276-.517-2.268-1.151-2.976-1.903l3.224-4.053a5.51 5.51 0 0 0 1.754 1.322c.696.34 1.423.51 2.179.51.377 0 .755-.07 1.133-.21.378-.142.715-.342 1.01-.6a2.876 2.876 0 0 0 .974-2.22c0-.682-.206-1.287-.62-1.816-.413-.528-1.092-1.063-2.037-1.603a15.02 15.02 0 0 1-1.576-1.022 6.594 6.594 0 0 1-1.347-1.34 6.622 6.622 0 0 1-.939-1.762c-.236-.658-.354-1.421-.354-2.29 0-1.2.213-2.315.638-3.349a8.05 8.05 0 0 1 1.771-2.679c.756-.752 1.665-1.345 2.728-1.78 1.063-.434 2.232-.652 3.508-.652 1.44 0 2.728.224 3.862.67 1.133.447 2.019 1.034 2.657 1.762l-3.224 3.913zm13.038 10.22l-1.595 9.023h-5.491l1.594-9.022-3.401-15.931h5.74l1.31 10.362h.106l4.96-10.362h5.917l-9.14 15.93zm24.906-10.22c0 .845-.112 1.609-.336 2.29a6.159 6.159 0 0 1-.922 1.798c-.39.517-.838.952-1.346 1.304a6.14 6.14 0 0 1-1.647.81l.035.071a4.02 4.02 0 0 1 1.205.564c.378.259.72.587 1.027.987.307.4.55.863.726 1.392.178.529.266 1.122.266 1.78 0 1.457-.254 2.702-.762 3.736-.507 1.034-1.175 1.886-2.001 2.555a8.237 8.237 0 0 1-2.782 1.48 10.571 10.571 0 0 1-3.135.476h-8.29l4.357-24.953h7.299c.732 0 1.47.1 2.214.3.744.2 1.417.522 2.02.969.602.446 1.098 1.034 1.488 1.762.39.728.584 1.621.584 2.679zm-4.995 1.092c0-.752-.237-1.322-.709-1.71-.472-.387-1.051-.58-1.736-.58h-1.878l-.992 5.638h2.02c.378 0 .767-.064 1.169-.193.401-.13.756-.33 1.063-.6.307-.27.56-.616.761-1.04.201-.422.302-.927.302-1.515zm-1.205 9.904c0-.94-.277-1.604-.833-1.991a3.119 3.119 0 0 0-1.824-.582h-2.161l-1.099 6.274h2.197c1.087 0 1.978-.312 2.675-.934.697-.623 1.045-1.545 1.045-2.767zM214.1 22.437h-6.554l-.921 5.18h6.129l-.78 4.442h-6.093l-.992 5.71h7.156l-.85 4.863H198.83l4.358-24.953h11.727l-.815 4.758zm16.085-.141h-4.606l-3.578 20.336h-5.385l3.578-20.336h-4.606l.815-4.617H231l-.815 4.617zM11.662 0v11.409H0v37.415l15.884 9.622V38.353h8.914l9.866-15.538h-18.78v-7.277h28.401L54.12 0H11.662zm4.222 4.13H46.39l-4.515 7.279H15.884v-7.28zM4.222 46.174V15.538h7.44v35.115l-7.44-4.479zm11.662-19.23h11.284l-4.749 7.28h-6.535v-7.28z"/></g></svg>
