<svg width="203" height="100" xmlns="http://www.w3.org/2000/svg"><path d="M0 68.51h3.258l.815 2.366a15.019 15.019 0 0 1 3.605-1.958 11.22 11.22 0 0 1 4.052-.775c2.308 0 4.005.7 5.092 2.101 1.086 1.4 1.629 3.202 1.629 5.405v14.684h-4.073V76.138c0-1.305-.367-2.345-1.1-3.12-.733-.775-1.738-1.163-3.014-1.163-1.14 0-2.179.163-3.116.49-.937.326-1.962.816-3.075 1.468v16.52H0V68.51zm32.91 22.068c-2.308 0-4.154-.327-5.54-.98-1.384-.652-2.41-1.787-3.074-3.405-.666-1.618-.998-3.882-.998-6.792 0-2.99.34-5.296 1.018-6.913.679-1.618 1.704-2.733 3.075-3.345 1.371-.612 3.211-.918 5.52-.918 2.307 0 4.147.313 5.518.938 1.371.626 2.396 1.747 3.075 3.365.68 1.618 1.018 3.91 1.018 6.873 0 2.937-.332 5.215-.997 6.833-.666 1.618-1.684 2.746-3.055 3.385-1.371.64-3.225.959-5.56.959zm0-3.345c1.358 0 2.424-.184 3.197-.55.774-.368 1.358-1.116 1.752-2.244.394-1.129.59-2.821.59-5.078 0-2.258-.196-3.95-.59-5.079-.394-1.128-.978-1.87-1.752-2.223-.773-.353-1.84-.53-3.197-.53-1.385 0-2.45.177-3.197.53-.747.354-1.317 1.095-1.71 2.223-.395 1.129-.591 2.821-.591 5.079 0 2.284.196 3.99.59 5.119.394 1.128.964 1.87 1.71 2.223.748.353 1.813.53 3.198.53zM47.492 68.51h3.136l.937 3.67c1.031-1.25 2.118-2.222 3.258-2.916 1.14-.693 2.417-1.04 3.829-1.04.733 0 1.385.082 1.955.245v4.201a15.854 15.854 0 0 0-2.444-.204c-1.33 0-2.498.238-3.503.714s-2.036 1.23-3.095 2.264v14.888h-4.073V68.51zm24.56 22.067c-1.358 0-2.912-.062-4.664-.184-1.751-.122-2.993-.292-3.726-.51v-2.447h9.164c1.303 0 2.267-.184 2.892-.55.624-.368.936-1.109.936-2.224v-.897c0-1.74-1.167-2.61-3.502-2.61h-3.177c-2.091 0-3.707-.429-4.847-1.286-1.14-.856-1.71-2.277-1.71-4.262v-1.183c0-2.094.617-3.637 1.852-4.63 1.236-.992 3.28-1.488 6.13-1.488 1.195 0 2.593.074 4.196.224 1.602.15 2.837.32 3.706.51v2.447h-8.635c-1.276 0-2.213.218-2.81.653-.598.435-.896 1.196-.896 2.284v.816c0 1.033.292 1.713.875 2.04.584.326 1.528.489 2.831.489h3.259c2.036 0 3.59.476 4.663 1.427 1.073.952 1.609 2.312 1.609 4.08v1.672c0 2.094-.686 3.555-2.057 4.385-1.371.829-3.4 1.244-6.089 1.244zm12.79-31.367h4.072v17.661h2.974l6.068-8.361h4.236l-7.29 10.197 7.82 11.625h-4.236l-6.72-9.79h-2.852v9.79h-4.073V59.21zm29.814 31.367c-2.362 0-4.216-.34-5.56-1.02-1.344-.68-2.308-1.822-2.892-3.426-.583-1.605-.875-3.848-.875-6.73 0-2.938.292-5.208.875-6.813.584-1.604 1.541-2.732 2.872-3.385 1.33-.653 3.177-.979 5.54-.979 2.063 0 3.706.218 4.928.653 1.221.435 2.118 1.183 2.688 2.243.57 1.06.855 2.529.855 4.405 0 1.931-.557 3.325-1.67 4.181-1.113.857-2.715 1.285-4.806 1.285h-7.21c.028 1.659.211 2.944.55 3.855.34.91.958 1.57 1.854 1.978.896.408 2.186.612 3.87.612h6.801v2.447c-1.493.218-2.81.388-3.95.51-1.141.122-2.431.184-3.87.184zm1.588-12.156c1.114 0 1.921-.21 2.424-.632.502-.421.753-1.162.753-2.223 0-1.631-.36-2.76-1.079-3.385-.72-.626-1.962-.939-3.727-.939-1.385 0-2.45.204-3.197.612-.747.408-1.276 1.122-1.589 2.142-.312 1.02-.468 2.495-.468 4.425h6.883zm19.429 12.156c-1.358 0-2.912-.062-4.664-.184-1.751-.122-2.994-.292-3.727-.51v-2.447h9.165c1.303 0 2.267-.184 2.891-.55.625-.368.937-1.109.937-2.224v-.897c0-1.74-1.167-2.61-3.503-2.61h-3.176c-2.091 0-3.707-.429-4.847-1.286-1.14-.856-1.711-2.277-1.711-4.262v-1.183c0-2.094.618-3.637 1.853-4.63 1.236-.992 3.279-1.488 6.13-1.488 1.195 0 2.593.074 4.195.224 1.602.15 2.838.32 3.707.51v2.447h-8.635c-1.276 0-2.213.218-2.81.653-.598.435-.897 1.196-.897 2.284v.816c0 1.033.292 1.713.876 2.04.584.326 1.528.489 2.83.489h3.26c2.036 0 3.59.476 4.663 1.427 1.073.952 1.609 2.312 1.609 4.08v1.672c0 2.094-.686 3.555-2.057 4.385-1.371.829-3.401 1.244-6.09 1.244zm12.79-22.067h3.339l.733 2.202c.896-.652 1.955-1.23 3.177-1.733 1.222-.503 2.43-.755 3.625-.755 2.661 0 4.623 1.02 5.886 3.06 1.262 2.039 1.894 4.744 1.894 8.116 0 3.726-.618 6.527-1.854 8.403-1.235 1.876-3.21 2.814-5.926 2.814-1.113 0-2.274-.17-3.482-.51a14.796 14.796 0 0 1-3.32-1.366V100h-4.073V68.51zm9.652 18.681c3.286 0 4.929-2.597 4.929-7.79 0-2.693-.455-4.671-1.365-5.936-.91-1.264-2.084-1.896-3.523-1.896-1.738 0-3.612.544-5.62 1.631v12.441c.84.49 1.744.87 2.708 1.142.964.272 1.92.408 2.871.408zm14.54-22.353a.76.76 0 0 1-.529-.183c-.135-.122-.203-.292-.203-.51V60.72c0-.49.244-.734.733-.734h3.014c.217 0 .38.068.489.203a.824.824 0 0 1 .163.53v3.427c0 .462-.218.693-.652.693h-3.014zm-.57 3.672h4.074v21.822h-4.073V68.51zm15.845 21.863c-2.064 0-3.591-.544-4.582-1.632-.991-1.088-1.487-2.896-1.487-5.425V59.211h4.073v23.576c0 1.604.224 2.706.672 3.304.448.598 1.16.965 2.138 1.101l2.037.245v2.937h-2.851zm12.219 0c-2.064 0-3.591-.544-4.582-1.632-.991-1.088-1.487-2.896-1.487-5.425V59.211h4.073v23.576c0 1.604.224 2.706.672 3.304.448.598 1.161.965 2.138 1.101l2.037.245v2.937h-2.851zM61.955 21.053h6.59v17.105h-6.59V21.053zM116 30.263h6.59v17.105H116V30.263zm22.41-9.21H145v17.105h-6.59V21.053zM72.5 10.526h6.59v36.842H72.5V10.526zM83.045 0h6.591v36.842h-6.59V0zM94.91 10.526h6.591v36.842h-6.59V10.526zm10.546 11.842h6.59v36.843h-6.59V22.368zm21.09-1.315h6.591v36.842h-6.59V21.053z" fill="#FFFFFF" fill-rule="evenodd"/></svg>
