<svg width="193" height="106" xmlns="http://www.w3.org/2000/svg"><path d="M147.62 73.986c0 .533.307.836.959.836 3.144 0 6.29-6.913 6.29-8.7 0-.15-.038-.456-.308-.456-1.649 0-6.94 6.042-6.94 8.32m12.331 18.764h6.61v2.237h-2.055v9.688h-2.5v-9.688h-2.055v9.688h-2.644V92.75h2.644zm-13.22 0h2.657l1.631 3.992c.695 1.71 1.161 3.007 1.4 3.89-.275-1.113-.411-2.742-.411-4.888V92.75h2.655v11.925h-2.584c-1.77-4.336-2.793-6.953-3.069-7.846.252.905.378 2.466.378 4.68v3.166h-2.656v-3.036c0 .928-.334 1.664-1.003 2.213-.67.548-1.657.823-2.963.823s-2.293-.271-2.962-.814c-.67-.543-1.004-1.284-1.004-2.222V92.75h2.867v8.753c0 .566.366.848 1.099.848s1.099-.282 1.099-.848V92.75h2.867zm-31.725 9.924v2.001h-13.22V92.75h2.982v9.756h3.628V92.75h2.98v9.756h3.63v-6.43c0-1.016.336-1.824 1.003-2.425.67-.6 1.655-.901 2.953-.901 1.3 0 2.287.3 2.963.901.675.6 1.012 1.409 1.012 2.425v6.598c0 1.016-.337 1.823-1.012 2.425-.676.6-1.662.901-2.963.901-1.298 0-2.284-.3-2.953-.901-.667-.602-1.003-1.409-1.003-2.425zm-39.658-.168V92.75h2.98v9.756h3.63v2.169h-13.22V92.75h2.982v9.756h3.628zm-33.689-30.1c1.812-5.541 6.996-11.898 12.626-11.898 1.263 0 2.256.79 2.256 2.257 0 .828-.306 1.881-1.07 3.085a2.22 2.22 0 0 0-.842-.15c-3.059 0-6.729 5.192-6.729 7.187 0 .488.19.752.688.752 5.238 0 10.363-13.094 11.93-16.368 1.3-2.708 2.409-5.228 2.409-6.432 0-.151-.038-.303-.076-.415.268-.038.573-.074.879-.074 2.485 0 5.009 1.504 5.009 3.121 0 1.582-9.139 16.33-9.139 20.356 0 .528.268.79.727.79 1.109 0 3.25-1.468 4.588-3.236-.573 4.139-5.583 9.444-8.947 9.444-1.721 0-3.022-1.354-3.097-4.892-2.333 2.748-5.469 4.59-7.953 4.59-2.791 0-3.94-1.804-3.94-4.326 0-.417.032-.855.094-1.308-1.718 3.592-6.16 5.936-10.348 5.936-3.09 0-5.609-1.503-5.609-5.204 0-6.284 7.442-15.996 13.585-15.996 3.51 0 4.922 1.927 4.922 4.355 0 6.014-5.228 9.675-8.356 9.675-1.336 0-2.29-.654-2.29-2.08 0-1.119.916-2.392 1.335-2.583.458.538.916.77 1.412.77 1.335 0 2.594-1.735 2.594-2.968 0-.886-.342-1.272-.877-1.272-1.832 0-5.8 4.24-5.8 8.018 0 1.31.687 2.274 2.481 2.274 2.533 0 6.337-1.891 7.538-3.408zm109.565-22.924c0-.19-.038-.342-.076-.457 1.534.457 5.255 1.863 5.255 4.066 0 1.748-3.03 5.091-3.99 9.005 1.61-1.292 3.068-2.32 4.526-2.32 3.067 0 4.334 1.9 4.334 4.523 0 6.191-7.018 16.526-14.575 16.526-3.49 0-5.254-2.658-5.254-5.927 0-6.306 9.78-21.578 9.78-25.416zm17.555 24.173c-1.336 0-2.289-.654-2.289-2.08 0-1.118.915-2.392 1.336-2.583.457.54.915.77 1.411.77 1.335 0 2.594-1.734 2.594-2.968 0-.885-.343-1.27-.876-1.27-1.833 0-5.801 4.238-5.801 8.016 0 1.31.687 2.274 2.48 2.274 2.634 0 6.64-2.042 7.67-3.585-.381 5.05-5.915 8.596-11.065 8.596-3.091 0-5.61-1.503-5.61-5.204 0-6.283 7.44-15.996 13.585-15.996 3.509 0 4.922 1.927 4.922 4.355 0 6.014-5.228 9.675-8.357 9.675zm13.918 2.712c0 1.612.315 3.072 1.06 4.15-.59.192-1.178.308-1.686.308-2.938 0-4.935-2.96-4.935-6.073 0-3.42 1.997-7.494 3.172-10.261-1.056-.576-1.527-1.73-1.527-2.804 0-.615.157-1.192.47-1.614 1.098 0 2.624-.23 3.173-.384 1.801-3.19 3.25-6.38 4.191-9.339 1.957.114 4.699 1.574 4.699 3.728 0 1.614-1.8 3.457-2.193 5.302.197 0 .392-.038.587-.038 2.781 0 3.291 1.846 3.291 3.306 0 .652-.078 1.229-.157 1.5-.665-.079-1.332-.079-1.998-.079-1.45 0-2.898.114-4.465.422-1.88 3.114-3.682 7.995-3.682 11.876zM17.655 68.522c.91 7.478 6.34 17.169 12.718 17.169 1.519 0 3.113-.573 4.707-1.832v.23c0 5.15-3.568 8.661-7.858 8.661-7.936 0-14.542-15.912-15.604-22.358-1.519 2.365-3.607 7.858-4.67 11.217h-.456c-2.43 0-4.404-1.413-4.404-4.12C2.088 75.58 7.24 63.694 8 59.803c.038-.19.195-.224.38-.266a22.201 22.201 0 0 1 3.44-.49l.816-2.338C7.149 57.886 1.67 60.392 1.67 63.676.494 62.036 0 60.509 0 59.136c0-5.26 7.437-8.48 14.918-8.97l8.864-25.417-7.25-2.756c-1.023-.388-.541-1.7-.541-1.7L20.298 8.85s-1.092-2.298-.886-3.575c0 0 3.134-1.138 6.447-5.274-.953 5.126.71 7.994.71 7.994-.713 1.012-2.91 2.132-2.91 2.132l-3.281 8.937 4.988 1.896 3.324-9.045s-.931-2.516-.628-3.602c0 0 3.6-1.078 6.04-5.179-.888 4.682 1.145 8.159 1.145 8.159-.41.959-2.653 2.106-2.653 2.106L29.287 22.4l4.88 1.856 3.39-9.22-.535-3.193s3.121-.962 5.648-5.454c-.798 5.219.953 8.335.953 8.335l-2.76 2.066-4.414 11.73s-.39.777-1.364.525c-.976-.25-7.369-2.8-7.369-2.8l-8.48 23.949c5.982.498 11.022 2.958 11.022 7.76 0 6.141-7.174 8.812-12.603 10.568zm1.29-12.553c-.56 0-1.164.031-1.781.077-1.078 3.044-2.04 5.758-2.769 7.821 2.397-.308 9.258-2.445 9.258-6.105 0-1.258-1.937-1.793-4.708-1.793zM41.66 72.406c-.28.856-.479 1.693-.587 2.483a7.433 7.433 0 0 0 .717-2.66c-.039.058-.082.117-.13.177zm51.603-4.332s-2.998 5.804-4.935 11.87a9.56 9.56 0 0 1-1.643-.143c-1.202 4.024-4.28 6.324-6.845 6.324-2.126 0-3.872-1.583-3.872-4.975 0-1.394.19-2.939.493-4.409-1.936 2.223-3.949 3.203-5.695 3.203-2.657 0-4.67-2.222-4.67-5.804 0-8.591 9.225-14.734 15.452-14.734 2.353 0 3.91 1.056 3.91 2.75 0 .829-.38 1.81-1.177 2.864a8.365 8.365 0 0 0-2.277-.338c-5.392 0-9.34 5.69-9.34 8.026 0 .604.228.942.798.942 1.974 0 5.884-4.672 6.378-7.687.38-.112.76-.188 1.139-.188 1.822 0 3.265 1.395 3.265 2.865 0 1.318-2.734 5.162-2.734 8.666 0 2.147.949 2.827 2.24 2.827.692 0 1.49-.196 2.3-.47-1.35-.363-2.582-1.144-2.582-2.733 0-2.525 6.569-14.132 6.569-18.428 0-.303-.038-.604-.114-.83 0 0 4.328.527 4.707 3.355 2.444-3.833 5.112-6.702 9.935-6.702 2.555 0 3.832 1.075 3.832 2.24 0 1.078-.806 1.565-2.218 1.962-.874.27-1.784.082-2.757.003-5.094-.417-7.576 4.193-10.159 9.544zm45.945-8.138c2.191 0 4.881 1.126 4.881 3.34 0 .89-1.307 3.141-2.075 4.967-3.691 9.006-6.959 20.532-15.8 20.532-3.922 0-6.46-3.22-6.46-6.715 0-.504.077-1.008.23-1.514 1.195 2.603 3.192 4.04 5.268 4.04 2.654 0 5.46-2.37 6.881-7.726-1.92 2.445-4.112 3.648-5.92 3.648-2.113 0-3.69-1.631-3.69-4.734 0-.176.02-.363.034-.547-1.018 3.14-3.996 6.965-7.303 6.965-2.844 0-3.766-1.593-3.766-3.688 0-3.531 2.651-8.538 3.536-9.898-2.075 0-7.766 7.918-8.727 12.732-.423.155-.844.193-1.27.193-1.766 0-3.42-1.085-3.42-2.91 0-3.377 2.768-6.445 3.883-9.704-2.73 0-6.958 7.57-8.458 12.692-.192.04-.422.04-.615.04-2.306 0-3.883-1.437-3.883-3.648 0-1.158 3.176-7.609 5.126-12.558.864-2.193 1.656-3.205 2.786-4.027 1.374-1 3.929-.378 3.929 1.25 0 .97-.383 2.136-1.23 3.534 2.691-3.028 5.882-5.396 8.034-5.396 1.537 0 2.577 1.165 2.577 4.116 2.422-2.641 5.035-4.194 6.843-4.194 1.73 0 2.344.894 2.344 2.174 0 3.65-4.92 10.674-4.92 12.149 0 .66.346.894.844.894 1.097 0 2.945-1.187 3.854-1.87.898-4.356 4.593-10.494 4.76-14.448 3.115 0 5.306.816 5.306 2.602 0 2.637-3.96 8.5-3.96 10.44 0 .311.307.467.616.467 2.422 0 9.264-9.276 9.765-13.198zM46.57 92.75h2.34l-1.668 11.925h-2.431l-.744-4.715-.4-3.287a41.787 41.787 0 0 1-.362 3.287l-.761 4.715H39.95L38.336 92.75h2.377c.458 3.132.713 4.962.761 5.49.048.527.09 1.1.127 1.72.181-1.583.484-3.987.906-7.21h2.305l.853 7.09c.06-1.148.162-2.203.307-3.167l.6-3.923zm2.34 0h6.61v2.237h-3.785v2.53h3.277v2.237h-3.277v2.684h3.785v2.237h-6.61V92.75zm16.14 11.925l-.48-2.752H62.3l-.447 2.752h-2.368l2.252-11.925h3.461l2.219 11.925H65.05zm-2.402-4.939h1.557l-.796-4.611-.761 4.611zm23.276-6.986h6.61v2.254h-3.68v2.943h3.39v2.305h-3.39v4.423h-2.93V92.75zm6.61 3.326c0-1.016.335-1.824 1.003-2.425.669-.6 1.654-.901 2.953-.901 1.3 0 2.286.3 2.963.901.675.6 1.012 1.409 1.012 2.425v6.598c0 1.016-.337 1.823-1.012 2.425-.677.6-1.663.901-2.963.901s-2.284-.3-2.953-.901c-.668-.602-1.004-1.409-1.004-2.425v-6.598zm5.092.149c0-.62-.377-.93-1.126-.93-.751 0-1.127.31-1.127.93v6.3c0 .619.376.93 1.127.93.75 0 1.126-.311 1.126-.93v-6.3zm22.473 0c0-.62-.377-.93-1.127-.93s-1.127.31-1.127.93v6.3c0 .619.376.93 1.127.93.75 0 1.127-.311 1.127-.93v-6.3zm12.396-3.475h2.34l-1.67 11.925h-2.43l-.745-4.715-.397-3.287a41.787 41.787 0 0 1-.363 3.287l-.762 4.715h-2.594L124.26 92.75h2.376c.46 3.132.715 4.962.763 5.49.048.527.09 1.1.126 1.72.182-1.583.483-3.987.907-7.21h2.303l.854 7.09c.06-1.148.163-2.203.308-3.167l.599-3.923zm35.388 0h6.61v2.237h-3.785v2.53h3.276v2.237h-3.276v2.684h3.784v2.237h-6.61V92.75zm7.931 0h4.666c1.037 0 1.842.223 2.412.67.569.448.854 1.108.854 1.98v6.47c0 1.87-1.031 2.805-3.092 2.805h-4.84V92.75zm5.052 2.752c0-.206-.056-.364-.164-.472-.109-.11-.317-.164-.624-.164h-1.384v7.59h1.384c.524 0 .788-.266.788-.793v-6.16z" fill="#FFFFFF" fill-rule="evenodd"/></svg>
