<svg width="203" height="95" xmlns="http://www.w3.org/2000/svg"><path d="M98.285 46.843l-7.128 33.524h-7.959l-.058-2.286c-2.672 1.905-5.726 2.857-9.162 2.857-3.016 0-5.44-.809-7.272-2.428-1.833-1.619-2.749-4.03-2.749-7.229 0-1.448.152-2.857.458-4.23.992-4.76 2.872-8.342 5.64-10.742 2.768-2.4 6.214-3.6 10.336-3.6 2.901 0 5.25.61 7.045 1.828l1.844-8.695c-.295-.14-.586-.29-.872-.449-1.854-1.039-3.576-2.431-4.878-4.294-1.324-1.827-2.083-4.233-1.918-6.527.163-2.297 1.051-4.323 2.202-6.06 1.164-1.732 2.6-3.1 4.025-4.276 1.427-1.183 2.885-2.183 4.198-3.201 1.307-1.01 2.485-2.058 3.104-3.187.33-.557.461-1.148.52-1.772.047-.61-.034-1.09-.36-1.514-.322-.432-.946-.799-1.676-1.014-.732-.216-1.551-.323-2.383-.35a13.327 13.327 0 0 0-2.53.168c-.422.068-.838.164-1.25.281-.205.061-.407.132-.6.222-.181.095-.4.192-.46.406.002-.233.206-.406.365-.55.172-.148.36-.276.551-.395.384-.238.791-.43 1.205-.607.83-.35 1.695-.624 2.596-.814.14-.03.282-.053.424-.078a.951.951 0 0 1 .084-.255c.113-.21.292-.35.47-.457.716-.343 1.347-.317 1.948-.316 1.198.05 2.31.277 3.393.518 1.081.24 2.128.533 3.152.737.51.1 1.016.182 1.508.18.492.003.978-.103 1.434-.51-.053.613-.605 1.15-1.193 1.42-.598.278-1.231.373-1.839.413-1.04.055-2.03-.077-2.987-.27.243.279.457.587.621.917.277.557.432 1.146.506 1.71a6.823 6.823 0 0 1-.483 3.296c-.417 1.02-1.008 1.894-1.63 2.66-.625.769-1.287 1.44-1.945 2.076-1.318 1.262-2.618 2.394-3.77 3.552-1.152 1.153-2.138 2.342-2.794 3.584-.66 1.22-1.007 2.565-1.015 3.752-.012 1.179.2 2.3.864 3.337.646 1.033 1.733 1.885 2.975 2.42 1.248.54 2.622.793 3.968.896 1.338.11 2.631-.057 3.842-.535a7.212 7.212 0 0 0 3.015-2.163 5.741 5.741 0 0 0 1.308-3.316 5.797 5.797 0 0 0-.21-1.962 6 6 0 0 0-.844-1.781c-.756-1.085-1.942-1.938-3.346-2.137a4.14 4.14 0 0 0-2.177.29c-.728.304-1.415.826-2.029 1.482.099-.71 1.814-3.201 2.239-3.787a101.435 101.435 0 0 1 2.657-3.474c1.79-2.289 3.624-4.518 5.374-6.784 1.738-2.265 3.438-4.562 4.771-6.952.663-1.196 1.174-2.417 1.64-3.56.444-1.184.8-2.202.45-3.83.75.293 1.43.964 1.757 1.797.33.82.43 1.734.335 2.56-.148 1.693-.883 3.128-1.626 4.457-1.517 2.664-3.386 4.97-5.33 7.176-1.953 2.197-4.008 4.27-6.123 6.267-.285.278-.577.549-.866.823.871-.738 1.746-1.468 2.632-2.18l4.182-3.424c1.387-1.139 2.728-2.322 4.058-3.501a61.727 61.727 0 0 0 3.798-3.679c1.197-1.268 2.313-2.593 3.243-3.987.215-.354.459-.699.653-1.058.179-.363.4-.716.55-1.083.307-.734.601-1.457.801-2.185.438-1.458.634-2.934.5-4.965 1.742 1.074 2.562 3.376 2.338 5.464-.083 1.056-.422 2.043-.839 2.958-.2.465-.458.883-.687 1.325-.24.432-.52.826-.779 1.24-1.093 1.602-2.361 3.011-3.683 4.33a50.753 50.753 0 0 1-4.167 3.673c-2.887 2.28-5.894 4.339-8.955 6.285a123.54 123.54 0 0 1-2.203 1.401c2.517-1.136 5.064-2.159 7.545-3.278 2.469-1.136 4.94-2.229 7.189-3.497 1.13-.625 2.144-1.36 3.038-2.093.907-.75 1.603-1.517 1.95-3.032.11.148.218.308.311.479l.143.263c.034.092.058.186.081.282.046.192.1.394.132.6 0 .2 0 .408-.011.618a2.322 2.322 0 0 1-.105.614c-.058.196-.098.415-.183.6-.171.358-.343.758-.581 1.066-.916 1.326-2.19 2.161-3.413 2.92-2.494 1.478-5.135 2.411-7.779 3.22-2.307.71-4.606 1.373-6.882 2.077.967-.033 1.925-.034 2.871-.047 2.012-.025 4.004-.069 5.825-.492 1.838-.414 3.399-.997 5.111-2.379-.131 1.094-.75 2.127-1.612 2.89-.868.763-1.943 1.246-3.016 1.506-2.163.498-4.292.469-6.35.37-.39-.022-.778-.05-1.166-.077.068.059.141.111.207.172a8.658 8.658 0 0 1 1.927 2.608c.461.988.805 1.993.975 3.096a9.462 9.462 0 0 1-.105 3.38 9.761 9.761 0 0 1-1.316 3.162c-1.777 2.725-4.584 4.443-7.59 5.14zm-54.999 48.03a5.637 5.637 0 0 1-1.321-.364v-1.817c.415.176.867.315 1.356.417.488.102.955.153 1.398.153.6 0 1.024-.051 1.273-.153.249-.102.373-.312.373-.63 0-.221-.064-.396-.194-.524-.129-.128-.324-.239-.587-.331a22.962 22.962 0 0 0-1.294-.392c-.619-.177-1.105-.373-1.46-.59-.356-.216-.612-.478-.768-.783-.158-.305-.236-.687-.236-1.147 0-.823.307-1.449.92-1.878.614-.428 1.511-.643 2.692-.643.49 0 .98.036 1.474.106.493.071.901.16 1.225.265v1.831a6.59 6.59 0 0 0-2.367-.438c-.562 0-.982.051-1.26.153-.276.102-.414.299-.414.59a.6.6 0 0 0 .166.445c.11.11.288.208.533.292.244.084.63.192 1.155.325.71.185 1.261.407 1.654.663.392.257.664.55.817.882.152.331.228.723.228 1.174 0 .778-.314 1.393-.941 1.844-.628.451-1.55.677-2.768.677-.59 0-1.142-.043-1.654-.127zm6.497-8.55h2.228v3.384H55.5v-3.383h2.228v8.543H55.5v-3.383H52.01v3.383h-2.228v-8.543zm12.483 0h2.408l3.405 8.544h-2.325l-.803-1.937h-2.975l-.789 1.937h-2.325l3.404-8.543zm2.38 5.028l-1.19-2.971-1.176 2.971h2.367zm4.567-5.027h4.457c1.024 0 1.792.258 2.304.776.512.517.768 1.236.768 2.155 0 .575-.15 1.08-.45 1.513-.3.433-.717.756-1.252.968.12.098.219.204.297.319.08.114.168.283.27.504l1.052 2.308h-2.325l-.997-2.175c-.082-.195-.189-.333-.318-.412-.129-.08-.313-.12-.553-.12h-1.024v2.707h-2.229v-8.543zm3.876 4.192c.442 0 .784-.107 1.024-.318.24-.213.36-.527.36-.943 0-.857-.43-1.286-1.288-1.286h-1.743v2.547h1.647zm4.788-4.192h6.574v1.645h-4.346v1.79h3.834v1.672h-3.834v1.79h4.346v1.646h-6.574v-8.543zm14.545 1.645h-2.616v-1.646h7.46v1.646H94.65v6.898h-2.228v-6.898zm5.701-1.645h2.228v3.383h3.488v-3.383h2.228v8.543h-2.228v-3.383h-3.488v3.383h-2.228v-8.543zm9.356 0h6.574v1.645h-4.346v1.79h3.833v1.672h-3.833v1.79h4.346v1.646h-6.574v-8.543zm13.417 7.561c-.808-.743-1.211-1.799-1.211-3.17 0-1.442.415-2.556 1.245-3.343.83-.787 2.035-1.181 3.612-1.181 1.043 0 1.952.125 2.727.372v1.83c-.702-.247-1.555-.372-2.56-.372-.96 0-1.66.218-2.098.651-.438.433-.657 1.114-.657 2.042 0 .841.206 1.462.616 1.865.41.402 1.026.603 1.847.603a5.09 5.09 0 0 0 1.495-.212v-1.619h-1.923v-1.34h3.792v4.232c-.36.221-.821.403-1.385.545-.562.14-1.227.212-1.992.212-1.532 0-2.701-.372-3.508-1.115zm8.02-7.561h2.228v6.898h4.207v1.645h-6.436v-8.543zm7.237 7.6c-.747-.715-1.12-1.812-1.12-3.29 0-1.547.368-2.674 1.107-3.382.737-.707 1.849-1.061 3.335-1.061 1.476 0 2.585.354 3.328 1.061.743.708 1.114 1.835 1.114 3.383 0 1.477-.374 2.574-1.12 3.29-.748.716-1.856 1.075-3.322 1.075-1.467 0-2.575-.359-3.322-1.075zm4.961-1.359c.347-.411.52-1.054.52-1.93 0-.946-.17-1.618-.513-2.016-.34-.398-.89-.598-1.646-.598-.767 0-1.32.2-1.661.598-.342.398-.512 1.07-.512 2.016 0 .876.173 1.519.519 1.93.346.412.897.617 1.654.617.747 0 1.294-.205 1.64-.617zm3.937-6.241h4.457c1.024 0 1.792.258 2.304.776.512.517.768 1.236.768 2.155 0 .575-.15 1.08-.45 1.513-.3.433-.717.756-1.252.968.12.098.219.204.298.319.078.114.168.283.27.504l1.051 2.308h-2.325l-.996-2.175c-.083-.195-.19-.333-.319-.412-.129-.08-.313-.12-.553-.12h-1.024v2.707h-2.229v-8.543zm3.876 4.192c.443 0 .784-.107 1.024-.318.24-.213.36-.527.36-.943 0-.857-.43-1.286-1.288-1.286h-1.743v2.547h1.647zm6.81 1.207l-3.198-5.4h2.325l1.993 3.542 1.993-3.541h2.325l-3.197 5.4v3.143h-2.242v-3.144zM60.441 55.366c2.004 1.771 3.006 4.067 3.006 6.886 0 .762-.096 1.657-.286 2.686l-1.03 4.857H42.89c.038 1.792.66 3.039 1.862 3.743 1.202.705 3.33 1.057 6.385 1.057 1.489 0 3.035-.133 4.638-.4 1.603-.266 2.958-.608 4.066-1.029l-1.26 6.001c-2.825 1.181-6.471 1.771-10.937 1.771-3.895 0-7.044-.914-9.449-2.743-2.405-1.828-3.608-4.476-3.608-7.943 0-.15.01-.304.014-.457h-6.22c.046.198.092.406.137.629l2.29 9.943h-9.62l-2.176-9.372c-.192-.876-.506-1.476-.945-1.8-.44-.323-1.155-.486-2.147-.486h-4.238L9.219 80.367H0l7.788-36.801h18.439c3.13 0 5.64.857 7.53 2.571 1.89 1.715 2.835 4.039 2.835 6.972 0 .952-.115 1.982-.343 3.086-.497 2.438-1.576 4.6-3.236 6.486-.582.66-1.21 1.258-1.879 1.8h4.47c2.407-7.839 7.921-11.772 16.564-11.772 3.511 0 6.27.886 8.274 2.657zm-4.953 7.915c.076-.305.114-.705.114-1.2 0-2.095-1.489-3.143-4.466-3.143-2.139 0-3.751.438-4.84 1.314-1.087.877-1.842 2.286-2.261 4.228H55.26l.229-1.2zm-35.504-1.658c1.833 0 3.34-.457 4.524-1.37 1.183-.915 1.966-2.268 2.348-4.058.19-1.029.286-1.81.286-2.343 0-1.105-.334-1.915-1.002-2.428-.669-.515-1.804-.772-3.407-.772h-7.215L13.17 61.623h6.814zm158.249-6.257c2.004 1.771 3.006 4.067 3.006 6.886 0 .762-.096 1.657-.287 2.686l-1.03 4.857h-19.241c.037 1.792.658 3.039 1.861 3.743 1.202.705 3.33 1.057 6.385 1.057 1.49 0 3.035-.133 4.639-.4 1.603-.266 2.958-.608 4.066-1.029l-1.26 6.001c-2.826 1.181-6.471 1.771-10.938 1.771-3.894 0-7.043-.914-9.448-2.743-2.405-1.828-3.608-4.476-3.608-7.943 0-.15.008-.304.014-.457h-2.113c-1.064 3.287-2.575 5.832-4.537 7.629-2.557 2.343-5.975 3.514-10.25 3.514-1.795 0-3.321-.238-4.58-.714a9.292 9.292 0 0 1-3.322-2.143l-.916 2.286h-8.018l8.19-38.516h9.219l-2.691 12.686c2.328-1.219 4.943-1.828 7.845-1.828 3.207 0 5.735.829 7.587 2.486 1.852 1.657 2.778 4.085 2.778 7.286 0 .601-.046 1.27-.13 2h1.94c2.408-7.839 7.922-11.772 16.564-11.772 3.512 0 6.27.886 8.275 2.657zm-4.954 7.915c.076-.305.115-.705.115-1.2 0-2.095-1.489-3.143-4.467-3.143-2.139 0-3.75.438-4.839 1.314-1.088.877-1.842 2.286-2.262 4.228h11.224l.23-1.2zm-34.179 9.143c1.183-1.219 2.061-3.143 2.634-5.772.267-1.486.401-2.552.401-3.2 0-1.448-.373-2.476-1.117-3.086-.744-.609-1.938-.914-3.578-.914-2.177 0-4.01.57-5.498 1.714l-2.348 11.03a4.564 4.564 0 0 0 1.947 1.541c.801.344 1.718.515 2.749.515 2.023 0 3.626-.609 4.81-1.828zm-55.445-.229l2.348-10.972c-1.07-1.18-2.616-1.771-4.639-1.771-1.985 0-3.599.62-4.838 1.857-1.242 1.238-2.148 3.171-2.72 5.8-.269 1.182-.401 2.23-.401 3.143 0 1.41.372 2.429 1.116 3.058.744.628 1.918.942 3.522.942 2.023 0 3.894-.686 5.612-2.057zm33.764-5.657c1.01.952 1.517 2.191 1.517 3.714 0 .572-.095 1.335-.286 2.286-.61 2.82-2.062 4.924-4.352 6.314-2.291 1.391-5.67 2.086-10.136 2.086-2.138 0-4.143-.152-6.013-.457-1.87-.304-3.36-.685-4.467-1.143l1.49-7.028c1.182.534 2.614.962 4.294 1.285 1.68.324 3.244.486 4.696.486 1.794 0 3.035-.086 3.722-.257.688-.172 1.107-.581 1.26-1.229.115-.533-.106-.971-.659-1.314-.553-.343-1.613-.762-3.178-1.257l-2.29-.8c-2.062-.762-3.58-1.61-4.553-2.543-.973-.934-1.46-2.162-1.46-3.686 0-.686.076-1.351.229-2 .573-2.743 1.984-4.81 4.238-6.2 2.252-1.39 5.611-2.086 10.078-2.086 1.641 0 3.283.124 4.924.371 1.641.248 2.978.562 4.01.943l-1.432 6.915c-.955-.458-2.082-.81-3.379-1.057a19.924 19.924 0 0 0-3.722-.372c-1.68 0-2.96.096-3.837.286-.878.191-1.374.591-1.49 1.2-.113.534.068.924.545 1.171.477.248 1.44.6 2.892 1.058.305.114.64.22 1.003.313.362.096.752.22 1.173.372 2.443.8 4.17 1.677 5.183 2.63zm77.506-6.286l-2.177 10.4c-.152.839-.229 1.353-.229 1.543 0 .724.239 1.229.716 1.514.477.286 1.308.429 2.492.429 1.183 0 2.404-.19 3.664-.571l-1.317 6.228c-1.947.762-4.276 1.143-6.986 1.143-2.597 0-4.58-.609-5.955-1.828s-2.062-2.952-2.062-5.2c0-.724.095-1.6.286-2.629l2.348-11.029h-3.665l1.49-6.972h3.664l1.202-5.657 9.735-2.457-1.717 8.114H203l-1.89 6.972h-6.184z" fill="#FFFFFF" fill-rule="evenodd"/></svg>
