<?xml version="1.0" encoding="UTF-8"?>
<svg width="131px" height="70px" viewBox="0 0 131 70" version="1.1" xmlns="http://www.w3.org/2000/svg" xmlns:xlink="http://www.w3.org/1999/xlink">
    <!-- Generator: Sketch 50.2 (55047) - http://www.bohemiancoding.com/sketch -->
    <title>logo</title>
    <desc>Created with Sketch.</desc>
    <defs>
        <linearGradient x1="-8.7995589%" y1="0%" x2="114.835706%" y2="0%" id="linearGradient-1">
            <stop stop-color="#F4835E" offset="0%"></stop>
            <stop stop-color="#CE242C" offset="100%"></stop>
        </linearGradient>
    </defs>
    <g id="Design" stroke="none" stroke-width="1" fill="none" fill-rule="evenodd">
        <g id="Brands-Drowpdown" transform="translate(-30.000000, -28.000000)">
            <g id="header" transform="translate(30.000000, 28.000000)">
                <g id="logo">
                    <path d="M40,63.0863014 L42.9630137,63.0863014 C43.6981772,63.0863014 44.2703176,63.2636969 44.6794521,63.6184932 C45.0885865,63.9732894 45.2931507,64.4575312 45.2931507,65.0712329 C45.2931507,65.6849346 45.0869884,66.1707745 44.6746575,66.5287671 C44.2623267,66.8867598 43.6917845,67.0657534 42.9630137,67.0657534 L41.2369863,67.0657534 L41.2369863,69.9136986 L40,69.9136986 L40,63.0863014 Z M42.8191781,66.1068493 C43.2474907,66.1068493 43.5719167,66.0189507 43.7924658,65.8431507 C44.0130148,65.6673507 44.1232877,65.4132437 44.1232877,65.0808219 C44.1232877,64.7420074 44.014613,64.4847041 43.7972603,64.3089041 C43.5799076,64.1331041 43.2538835,64.0452055 42.8191781,64.0452055 L41.2369863,64.0452055 L41.2369863,66.1068493 L42.8191781,66.1068493 Z M50.1931507,68.3123288 L46.8561644,68.3123288 L46.1657534,69.9136986 L44.9191781,69.9136986 L48.0068493,63.0863014 L49.0136986,63.0863014 L52.1109589,69.9136986 L50.8739726,69.9136986 L50.1931507,68.3123288 Z M49.7808219,67.3534247 L48.5246575,64.4287671 L47.2684932,67.3534247 L49.7808219,67.3534247 Z M58.4684932,69.9136986 L57.1643836,69.9136986 L56.2917808,67.6410959 C56.2150681,67.4301359 56.0968045,67.2831054 55.9369863,67.2 C55.7771682,67.1168946 55.5694077,67.0753425 55.3136986,67.0753425 L54.0767123,67.0753425 L54.0767123,69.9136986 L52.8493151,69.9136986 L52.8493151,63.0863014 L55.7739726,63.0863014 C56.5474925,63.0863014 57.1356144,63.2557061 57.5383562,63.5945205 C57.9410979,63.933335 58.1424658,64.4191749 58.1424658,65.0520548 C58.1424658,65.5059383 58.0226039,65.8910943 57.7828767,66.2075342 C57.5431495,66.5239742 57.2027419,66.7493144 56.7616438,66.8835616 C57.1643856,66.9666671 57.4552502,67.2479428 57.6342466,67.7273973 L58.4684932,69.9136986 Z M55.6013699,66.1164384 C56.0680389,66.1164384 56.4132409,66.0301378 56.6369863,65.8575342 C56.8607317,65.6849306 56.9726027,65.4228328 56.9726027,65.0712329 C56.9726027,64.7260257 56.8623299,64.4687223 56.6417808,64.2993151 C56.4212318,64.1299078 56.0744316,64.0452055 55.6013699,64.0452055 L54.0575342,64.0452055 L54.0575342,66.1164384 L55.6013699,66.1164384 Z M60.990411,64.1027397 L58.7657534,64.1027397 L58.7657534,63.0863014 L64.4712329,63.0863014 L64.4712329,64.1027397 L62.2369863,64.1027397 L62.2369863,69.9136986 L60.990411,69.9136986 L60.990411,64.1027397 Z M71.0780822,63.0863014 L71.0780822,69.9136986 L70.1575342,69.9136986 L66.4753425,65.1287671 L66.4753425,69.9136986 L65.3246575,69.9136986 L65.3246575,63.0863014 L66.2452055,63.0863014 L69.9178082,67.8616438 L69.9178082,63.0863014 L71.0780822,63.0863014 Z M72.5643836,63.0863014 L77.1287671,63.0863014 L77.1287671,64.0643836 L73.7726027,64.0643836 L73.7726027,65.9534247 L76.9273973,65.9534247 L76.9273973,66.9315068 L73.7726027,66.9315068 L73.7726027,68.9356164 L77.1287671,68.9356164 L77.1287671,69.9136986 L72.5643836,69.9136986 L72.5643836,63.0863014 Z M83.8890411,69.9136986 L82.5849315,69.9136986 L81.7123288,67.6410959 C81.6356161,67.4301359 81.5173524,67.2831054 81.3575342,67.2 C81.1977161,67.1168946 80.9899556,67.0753425 80.7342466,67.0753425 L79.4972603,67.0753425 L79.4972603,69.9136986 L78.269863,69.9136986 L78.269863,63.0863014 L81.1945205,63.0863014 C81.9680404,63.0863014 82.5561624,63.2557061 82.9589041,63.5945205 C83.3616458,63.933335 83.5630137,64.4191749 83.5630137,65.0520548 C83.5630137,65.5059383 83.4431519,65.8910943 83.2034247,66.2075342 C82.9636974,66.5239742 82.6232899,66.7493144 82.1821918,66.8835616 C82.5849335,66.9666671 82.8757982,67.2479428 83.0547945,67.7273973 L83.8890411,69.9136986 Z M81.0219178,66.1164384 C81.4885868,66.1164384 81.8337888,66.0301378 82.0575342,65.8575342 C82.2812797,65.6849306 82.3931507,65.4228328 82.3931507,65.0712329 C82.3931507,64.7260257 82.2828778,64.4687223 82.0623288,64.2993151 C81.8417797,64.1299078 81.4949795,64.0452055 81.0219178,64.0452055 L79.4780822,64.0452055 L79.4780822,66.1164384 L81.0219178,66.1164384 Z M87.2835616,70 C86.7593581,70 86.2687237,69.9296811 85.8116438,69.7890411 C85.3545639,69.6484011 84.9662116,69.4470333 84.6465753,69.1849315 L85.0684932,68.2835616 C85.4009149,68.532878 85.7477151,68.7166661 86.1089041,68.8349315 C86.4700931,68.9531969 86.864838,69.0123288 87.2931507,69.0123288 C87.7662124,69.0123288 88.1321905,68.9292246 88.3910959,68.7630137 C88.6500013,68.5968028 88.7794521,68.3634718 88.7794521,68.0630137 C88.7794521,67.8073047 88.6595902,67.6107313 88.419863,67.4732877 C88.1801358,67.3358441 87.7853909,67.2063933 87.2356164,67.0849315 C86.3789912,66.8995425 85.7557097,66.6598188 85.3657534,66.3657534 C84.9757971,66.071688 84.7808219,65.6433818 84.7808219,65.0808219 C84.7808219,64.6780802 84.8894966,64.3200929 85.1068493,64.0068493 C85.324202,63.6936057 85.6326464,63.4474895 86.0321918,63.2684932 C86.4317372,63.0894968 86.8936047,63 87.4178082,63 C87.8972627,63 88.3527376,63.0719171 88.7842466,63.2157534 C89.2157556,63.3595898 89.5689484,63.5593595 89.8438356,63.8150685 L89.4315068,64.7164384 C88.8241979,64.2305912 88.1529717,63.9876712 87.4178082,63.9876712 C86.9767101,63.9876712 86.6283118,64.0787662 86.3726027,64.2609589 C86.1168937,64.4431516 85.9890411,64.690866 85.9890411,65.0041096 C85.9890411,65.2726041 86.1025103,65.4771682 86.3294521,65.6178082 C86.5563938,65.7584482 86.9447461,65.8894971 87.4945205,66.0109589 C88.0634732,66.1452062 88.5269388,66.2906385 88.8849315,66.4472603 C89.2429242,66.6038821 89.5178073,66.8052499 89.709589,67.0513699 C89.9013708,67.2974898 89.9972603,67.6059342 89.9972603,67.9767123 C89.9972603,68.3858468 89.8885856,68.7422359 89.6712329,69.0458904 C89.4538802,69.3495449 89.1406413,69.5844741 88.7315068,69.7506849 C88.3223724,69.9168958 87.8397288,70 87.2835616,70 Z" id="PARTNERS" fill="#F6F6F6"></path>
                    <g>
                        <path d="M19.4061618,25.064211 C22.3804995,25.064211 24.564843,23.8576275 25.7006139,20.2295223 C28.7336322,19.6675999 31.7362133,19.125621 34.6984859,18.6095148 C33.2912488,23.5094243 30.7350788,26.778546 26.7996409,28.4370929 C30.7153358,30.2414433 31.17107,34.3996691 29.8430791,40.127235 C29.8430791,40.127235 29.3824091,41.6467163 28.9455952,43.8308022 C27.3192657,51.9634499 32.1028299,55.2681466 32.1028299,55.2681466 L21.5225017,55.2681466 C19.7215014,53.6780544 18.7886447,50.0752829 20.2282384,43.7216518 L21.1822092,39.8911468 C22.3846127,34.792341 21.0914462,32.9090251 17.1420237,32.9090251 L14.1405394,32.9090251 L8.77729877,55.2681466 L0.000164524995,55.2681466 L7.68320756,23.7641085 C10.742824,23.1313057 13.7805039,22.5141344 16.7748588,21.9268783 L16.0224311,25.064211 L19.4061618,25.064211 Z M52.3272294,41.6263955 L57.6701785,14.9430317 C60.5011053,14.5331114 63.2955623,14.143404 66.0510818,13.7749878 L60.6979869,41.0774094 C58.7873033,49.8638815 53.2252616,55.2680388 44.6044261,55.2680388 C35.9838648,55.2680388 32.6653957,49.8638815 34.6811011,41.0774094 L39.5337658,17.7839066 C42.5437506,17.2777722 45.5213787,16.7915813 48.455682,16.3315326 L43.282742,41.6263955 C42.3986943,45.548533 43.8297876,47.3445286 46.6138247,47.3445286 C49.3970392,47.3445286 51.45936,45.548533 52.3272294,41.6263955 Z M70.5885989,13.8504498 C70.6406984,13.6132835 70.70596,13.3895925 70.7635438,13.1578164 C73.7735285,12.7748467 76.7308653,12.4188278 79.6481677,12.0832914 C79.5247739,12.464644 79.4115259,12.8691742 79.315553,13.312783 C76.9291179,24.357725 93.4117803,26.4288874 90.2202696,41.7689648 C88.4327056,50.3592356 82.9414097,55.2680388 74.3211226,55.2680388 C65.7002871,55.2680388 62.3118948,50.3592356 64.2042064,41.7689648 L64.9308585,38.4704668 L73.1669797,38.4704668 L72.3369511,42.305823 C71.5071967,46.1411792 72.958033,47.5215948 75.7412475,47.5215948 C78.5250104,47.5215948 80.5675882,46.1411792 81.3811643,42.305823 C83.7245486,31.260881 67.2117233,29.1897186 70.5885989,13.8504498 Z M87.9234459,13.3127561 C88.1005844,12.4780924 88.1617329,11.7757568 88.1491193,11.1569684 C90.9402858,10.8696738 93.6977247,10.5982801 96.3970315,10.3530285 C96.3504161,11.4418374 96.2102956,12.6023352 95.9503461,13.8504228 L95.5990853,15.5378071 L87.4518075,15.5378071 L87.9234459,13.3127561 Z M117.357735,23.8873541 L120.297797,8.61788763 C123.312992,8.45591383 126.253053,8.32062124 129.121546,8.20877577 L120.252278,55.2682275 L111.315006,55.2682275 L115.846847,31.7321682 L105.979461,31.7321682 L101.340404,55.2682275 L92.5629959,55.2682275 L101.688375,9.89400397 C104.655857,9.64767444 107.564659,9.42613956 110.415329,9.2277823 L107.525721,23.8873541 L117.357735,23.8873541 Z" id="Combined-Shape" fill="#F6F6F6"></path>
                        <path d="M121.889439,0.350513297 L120.40652,8.05275809 C123.33342,7.96813284 126.261965,7.90210359 129.18859,7.85305329 L130.602683,0.350513297 L121.889439,0.350513297 Z M103.607422,0.350513297 L101.907056,8.80710859 C104.785695,8.65780163 107.677222,8.52143102 110.578346,8.40069182 L112.165189,0.350513297 L103.607422,0.350513297 Z M71.4342847,10.8825831 C74.4368659,10.632211 77.4783846,10.3918106 80.5541794,10.1621905 C81.5547656,8.66076621 82.96639,8.02095624 84.7523088,8.02095624 C86.3144737,8.02095624 87.371821,8.52008348 87.8568955,9.64473681 C90.6864512,9.45500378 93.5360241,9.27443399 96.4050658,9.10814808 C96.2029743,3.48272537 92.7989521,0.350513297 86.1603686,0.350513297 C78.8513457,0.350513297 73.8303171,4.13951429 71.4342847,10.8825831 Z M60.5923618,0.350513297 L58.2473322,12.0608684 C60.9680272,11.8016025 63.7298535,11.5471878 66.5363757,11.3005887 L68.6834268,0.350513297 L60.5923618,0.350513297 Z M43.1658744,0.350513297 L40.3418029,13.9064533 C43.199602,13.590052 46.1366474,13.2755371 49.1438901,12.9650649 L51.723642,0.350513297 L43.1658744,0.350513297 Z M13.392883,0.350513297 L9.14621865,17.7647177 C11.9047544,17.3868687 14.8818342,16.9893456 18.057715,16.5791557 L20.0684846,8.1966749 L24.2068367,8.1966749 C27.2516459,8.1966749 28.1721632,9.92205967 27.2467101,13.8452752 L26.8625443,15.4736374 C29.7047136,15.1273207 32.6625987,14.7772309 35.7235863,14.4263326 L36.058943,12.9812353 C38.0236457,4.50873909 35.175718,0.350513297 26.3072724,0.350513297 L13.392883,0.350513297 Z" id="Clip-11" fill="url(#linearGradient-1)"></path>
                    </g>
                </g>
            </g>
        </g>
    </g>
</svg>