<?xml version="1.0" encoding="UTF-8"?>
<svg width="12px" height="20px" viewBox="0 0 12 20" version="1.1" xmlns="http://www.w3.org/2000/svg" xmlns:xlink="http://www.w3.org/1999/xlink">
    <!-- Generator: Sketch 50.2 (55047) - http://www.bohemiancoding.com/sketch -->
    <title>facebook-logo</title>
    <desc>Created with Sketch.</desc>
    <defs></defs>
    <g id="Design" stroke="none" stroke-width="1" fill="none" fill-rule="evenodd">
        <g id="Brands-Drowpdown" transform="translate(-1185.000000, -53.000000)" fill="#FFFFFF">
            <g id="header" transform="translate(30.000000, 28.000000)">
                <g id="social-icons" transform="translate(1151.000000, 25.000000)">
                    <g id="facebook-logo">
                        <path d="M14.7791985,0.00390127181 L12.0924809,1.13686838e-13 C9.07440227,1.13686838e-13 7.12341367,1.93216989 7.12341367,4.92210461 L7.12341367,7.19186455 L4.42187906,7.19186455 C4.1893876,7.19186455 4,7.37366381 4,7.59915733 L4,10.8879295 C4,11.1123826 4.1893876,11.2952222 4.42187906,11.2952222 L7.12341367,11.2952222 L7.12341367,19.5927072 C7.12341367,19.8171604 7.31280127,20 7.54637033,20 L11.0695723,20 C11.3031414,20 11.492529,19.8171604 11.492529,19.5927072 L11.492529,11.2952222 L14.6506951,11.2952222 C14.8842642,11.2952222 15.0728436,11.1123826 15.0728436,10.8879295 L15.0747294,7.59915733 C15.0747294,7.49148222 15.0294703,7.38796848 14.9505364,7.3107233 C14.8716024,7.23451845 14.7643816,7.19186455 14.6517727,7.19186455 L11.492529,7.19186455 L11.492529,5.26775729 C11.492529,4.34315587 11.7209795,3.87370283 12.9680281,3.87370283 L14.7781209,3.87266249 C15.01169,3.87266249 15.2,3.68982288 15.2,3.46536971 L15.2,0.412494473 C15.2,0.186740878 15.01169,0.00494161097 14.7791985,0.00390127181 Z"></path>
                    </g>
                </g>
            </g>
        </g>
    </g>
</svg>