<?xml version="1.0" encoding="UTF-8"?>
<svg width="20px" height="20px" viewBox="0 0 20 20" version="1.1" xmlns="http://www.w3.org/2000/svg" xmlns:xlink="http://www.w3.org/1999/xlink">
    <!-- Generator: Sketch 50.2 (55047) - http://www.bohemiancoding.com/sketch -->
    <title>instagram-logo</title>
    <desc>Created with Sketch.</desc>
    <defs></defs>
    <g id="Design" stroke="none" stroke-width="1" fill="none" fill-rule="evenodd">
        <g id="Brands-Drowpdown" transform="translate(-1289.000000, -53.000000)" fill="#FFFFFF">
            <g id="header" transform="translate(30.000000, 28.000000)">
                <g id="social-icons" transform="translate(1151.000000, 25.000000)">
                    <g id="instagram-logo" transform="translate(108.000000, 0.000000)">
                        <path d="M14.4807394,0 L5.51926063,0 C2.47571165,0 0,2.47585952 0,5.5194085 L0,14.4807394 C0,17.5242884 2.47571165,20 5.51926063,20 L14.4807394,20 C17.5242884,20 20,17.5236969 20,14.4807394 L20,5.5194085 C20,2.47585952 17.5242884,0 14.4807394,0 Z M18.2255083,14.4807394 C18.2255083,16.5458041 16.5458041,18.2255083 14.4807394,18.2255083 L5.51926063,18.2255083 C3.45419593,18.2255083 1.77449168,16.5458041 1.77449168,14.4807394 L1.77449168,5.5194085 C1.77449168,3.45434381 3.45419593,1.77449168 5.51926063,1.77449168 L14.4807394,1.77449168 C16.5458041,1.77449168 18.2255083,3.45434381 18.2255083,5.5194085 L18.2255083,14.4807394 Z M10,4.84702403 C7.1580037,4.84702403 4.84628466,7.15874307 4.84628466,10 C4.84628466,12.8419963 7.1580037,15.1537153 10,15.1537153 C12.8414048,15.1537153 15.1537153,12.8419963 15.1537153,10 C15.1537153,7.15874307 12.8414048,4.84702403 10,4.84702403 Z M10,13.3786322 C8.13707948,13.3786322 6.62077634,11.863512 6.62077634,10 C6.62077634,8.13722736 8.13648799,6.62092421 10,6.62092421 C11.863512,6.62092421 13.3792237,8.13722736 13.3792237,10 C13.3792237,11.863512 11.8629205,13.3786322 10,13.3786322 Z M15.3697597,3.34225508 C15.0277264,3.34225508 14.6920518,3.48036969 14.4507209,3.72288355 C14.2074677,3.96436229 14.0683179,4.30048059 14.0683179,4.64369686 C14.0683179,4.98558226 14.2080591,5.32125693 14.4507209,5.56377079 C14.6916081,5.80524954 15.0277264,5.94454713 15.3697597,5.94454713 C15.7128281,5.94454713 16.0473198,5.80524954 16.2898336,5.56377079 C16.5324954,5.32125693 16.6710536,4.98499076 16.6710536,4.64369686 C16.6710536,4.30048059 16.5324954,3.96436229 16.2898336,3.72288355 C16.0483549,3.48036969 15.7128281,3.34225508 15.3697597,3.34225508 Z"></path>
                    </g>
                </g>
            </g>
        </g>
    </g>
</svg>