<?xml version="1.0" encoding="UTF-8"?>
<svg width="17px" height="17px" viewBox="0 0 17 17" version="1.1" xmlns="http://www.w3.org/2000/svg" xmlns:xlink="http://www.w3.org/1999/xlink">
    <!-- Generator: Sketch 50.2 (55047) - http://www.bohemiancoding.com/sketch -->
    <title>linkedin-logo</title>
    <desc>Created with Sketch.</desc>
    <defs></defs>
    <g id="Design" stroke="none" stroke-width="1" fill="none" fill-rule="evenodd">
        <g id="Brands-Drowpdown" transform="translate(-1351.000000, -55.000000)" fill="#FFFFFF">
            <g id="header" transform="translate(30.000000, 28.000000)">
                <g id="social-icons" transform="translate(1151.000000, 25.000000)">
                    <g id="linkedin-logo" transform="translate(168.000000, 0.000000)">
                        <path d="M18.8,12.1217667 L18.8,18.3333333 L15.1987333,18.3333333 L15.1987333,12.5382667 C15.1987333,11.0827333 14.6784,10.0892 13.375,10.0892 C12.3796,10.0892 11.7881,10.7581667 11.5274667,11.4061333 C11.4327333,11.6376 11.408,11.9593667 11.408,12.2839333 L11.408,18.3333333 L7.80603333,18.3333333 C7.80603333,18.3333333 7.85433333,8.5177 7.80603333,7.50153333 L11.408,7.50153333 L11.408,9.0364 C11.4007667,9.0483 11.3907333,9.0602 11.3844333,9.07186667 L11.408,9.07186667 L11.408,9.0364 C11.8865667,8.3 12.7405667,7.2472 14.6536667,7.2472 C17.0236333,7.2472 18.8,8.7949 18.8,12.1217667 Z M4.03793333,2.27976667 C2.8057,2.27976667 2,3.08826667 2,4.1511 C2,5.19106667 2.78283333,6.02313333 3.99056667,6.02313333 L4.01436667,6.02313333 C5.2704,6.02313333 6.05136667,5.19106667 6.05136667,4.1511 C6.0278,3.08826667 5.2704,2.27976667 4.03793333,2.27976667 Z M2.2142,18.3333333 L5.81453333,18.3333333 L5.81453333,7.50153333 L2.2142,7.50153333 L2.2142,18.3333333 Z"></path>
                    </g>
                </g>
            </g>
        </g>
    </g>
</svg>