<?xml version="1.0" encoding="UTF-8"?>
<svg width="17px" height="14px" viewBox="0 0 17 14" version="1.1" xmlns="http://www.w3.org/2000/svg" xmlns:xlink="http://www.w3.org/1999/xlink">
    <!-- Generator: Sketch 50.2 (55047) - http://www.bohemiancoding.com/sketch -->
    <title>twitter-logo</title>
    <desc>Created with Sketch.</desc>
    <defs></defs>
    <g id="Design" stroke="none" stroke-width="1" fill="none" fill-rule="evenodd">
        <g id="Brands-Drowpdown" transform="translate(-1234.000000, -56.000000)" fill="#FFFFFF">
            <g id="header" transform="translate(30.000000, 28.000000)">
                <g id="social-icons" transform="translate(1151.000000, 25.000000)">
                    <g id="twitter-logo" transform="translate(51.000000, 0.000000)">
                        <path d="M18.8,4.60877092 C18.1844856,4.88082324 17.5177877,5.06916715 16.8209046,5.15156761 C17.5335364,4.72648586 18.076869,4.05289479 18.3380361,3.24981727 C17.6713382,3.64350837 16.9337708,3.92994807 16.1437075,4.0829775 C15.5190063,3.41854203 14.6213265,3 13.6317788,3 C11.7301148,3 10.1867354,4.53814195 10.1867354,6.43335257 C10.1867354,6.70409694 10.218233,6.96437776 10.274666,7.21550298 C7.40838997,7.07162916 4.87152566,5.70744374 3.16934614,3.62781304 C2.87143192,4.13398731 2.70213265,4.72648586 2.70213265,5.35560685 C2.70213265,6.54583574 3.31239747,7.59873053 4.23501289,8.21084824 C3.67068198,8.19646086 3.1430982,8.03819965 2.67719709,7.78184266 L2.67719709,7.82369686 C2.67719709,9.48870937 3.8662292,10.8777457 5.43979377,11.1955761 C5.15237872,11.2714368 4.84527771,11.3119831 4.53292712,11.3119831 C4.31244434,11.3119831 4.09721116,11.2923639 3.88197797,11.2518177 C4.32294352,12.6160031 5.59334427,13.6061166 7.10128896,13.6375072 C5.92144364,14.5569917 4.4344973,15.1037123 2.82024842,15.1037123 C2.54333255,15.1037123 2.27166628,15.0880169 2,15.0579342 C3.52763065,16.0336603 5.33742676,16.6 7.28502461,16.6 C13.6212796,16.6 17.0873213,11.3682247 17.0873213,6.83227544 L17.0768221,6.38757453 C17.7540192,5.90232737 18.3380361,5.29936526 18.8,4.60877092 Z"></path>
                    </g>
                </g>
            </g>
        </g>
    </g>
</svg>