<svg width="241" height="52" xmlns="http://www.w3.org/2000/svg"><path d="M238.033 13.002h-6.686l-2.45 20.133h-8.21l2.45-20.133h-6.687c-1.192 0-2.12-1-1.986-2.267.132-1.2 1.324-2.266 2.515-2.266h21.584c1.192 0 2.119 1 1.986 2.266-.132 1.267-1.257 2.267-2.516 2.267zm-29.595-2.267c-.132 1.2-1.324 2.267-2.516 2.267h-7.15c-1.457 0-2.847 1-2.98 2.267-.132 1.266.928 2.266 2.45 2.266h3.112c1.192 0 2.052 1 1.986 2.267-.132 1.2-1.324 2.267-2.516 2.267h-2.913c-2.185 0-4.17 1.466-4.37 3.334-.199 1.799 1.39 3.333 3.575 3.333h6.952c1.192 0 2.12 1 1.986 2.266-.132 1.2-1.324 2.267-2.515 2.267h-10.197c-5.098 0-8.871-3.533-8.341-7.8.264-2.134 1.588-4.134 3.508-5.534-1.191-1.2-1.72-2.733-1.457-4.466.464-3.734 4.436-6.8 8.873-6.8h10.659c1.126-.134 1.986.866 1.854 2.066zm-47.67 6.8l.53-4.533h4.766c1.457 0 2.582 1 2.45 2.267-.132 1.266-1.457 2.266-2.98 2.266h-4.766zm-1.39 11.134l.794-6.6h4.568c2.186 0 3.774 1.466 3.51 3.334-.2 1.799-2.186 3.333-4.37 3.333h-4.503v-.067zm-7.35-6.667l-1.39 11.133h15.957c5.097 0 9.732-3.533 10.195-7.8.266-2.133-.595-4.133-2.119-5.533 1.391-1.2 2.318-2.733 2.583-4.467.397-3.733-2.781-6.8-7.217-6.8h-16.42l-1.126 9h-.993c-1.191 0-2.383 1-2.516 2.267-.132 1.2.73 2.267 1.987 2.267h1.06v-.067zm-9.004-11.267c-.133 1.2-1.258 2.267-2.516 2.267h-7.15c-1.458 0-2.847 1-2.98 2.267-.133 1.266.927 2.266 2.45 2.266h3.111c1.193 0 2.053 1 1.986 2.267-.131 1.2-1.257 2.267-2.515 2.267h-2.913c-2.186 0-4.172 1.466-4.37 3.334-.199 1.799 1.39 3.333 3.576 3.333h6.951c1.192 0 2.12 1 1.987 2.266-.133 1.2-1.259 2.267-2.516 2.267h-10.197c-5.098 0-8.871-3.533-8.342-7.8.264-2.134 1.589-4.134 3.51-5.534-1.192-1.2-1.723-2.733-1.458-4.466.464-3.734 4.437-6.8 8.873-6.8h10.659c1.126-.134 1.986.866 1.854 2.066zm-39.593 22.4L93.168 18.67l-1.588 13c-.133 1.2-1.324 2.266-2.517 2.266-1.191 0-2.118-1-1.986-2.266l2.848-23.134h6.62l10.263 14.4 1.588-12.932c.133-1.201 1.258-2.268 2.516-2.268 1.259 0 2.119 1 1.987 2.268l-2.847 23.132h-6.621zM71.849 20.87c-.53 4.534-3.178 8.2-5.892 8.2-2.715 0-4.436-3.666-3.907-8.2.53-4.534 3.178-8.267 5.893-8.267 2.781 0 4.503 3.733 3.906 8.267zm8.807 0c-.862 7.2-7.681 13.066-15.295 13.066-7.547 0-12.977-5.8-12.116-13.066.927-7.267 7.746-13.134 15.294-13.134s13.043 5.867 12.117 13.134zm-65.018-7.867c-2.053.933-4.039 1-4.435.133-.332-.866 1.058-2.333 3.11-3.266 2.053-.934 4.04-1 4.437-.134.398.867-.993 2.334-3.112 3.267zM19.544.869c.2.533-.927 1.6-2.516 2.4-1.588.8-3.045.933-3.243.4-.2-.534.926-1.6 2.515-2.4 1.589-.8 3.046-.934 3.244-.4zm-14.5 24.867c-.728.6-2.383-.134-3.641-1.734-1.324-1.6-1.787-3.333-1.06-3.933.729-.6 2.318.2 3.642 1.733 1.324 1.6 1.788 3.333 1.06 3.934zm5.66 11.09c-.64.507-2.133-.126-3.413-1.456-1.209-1.267-1.635-2.723-.995-3.229.711-.443 2.204.19 3.412 1.456 1.21 1.266 1.636 2.722.995 3.229zm8.991 2.978c-.665.572-2.194-.143-3.393-1.716-1.197-1.502-1.663-3.29-.997-3.863.665-.644 2.196.143 3.392 1.718 1.199 1.5 1.664 3.29.998 3.861zm-6.062-13.028c-.784.635-2.634-.127-4.057-1.714-1.494-1.524-1.991-3.301-1.209-3.872.782-.572 2.632.19 4.056 1.714 1.494 1.523 1.993 3.3 1.21 3.872zM38.56 14.03c1.653.255 2.71 1.974 2.38 3.884-.33 1.91-1.917 3.31-3.503 3.056-1.585-.19-2.71-1.974-2.38-3.884.331-1.91 1.917-3.31 3.503-3.056zm3.014 7.002c1.621.26 2.702 2.01 2.364 3.89-.338 1.944-1.892 3.306-3.512 3.046-1.62-.194-2.702-1.945-2.364-3.89.338-1.944 1.89-3.306 3.512-3.046zm-7.05-15.003c1.634.25 2.746 2.001 2.419 3.877-.261 1.939-1.83 3.315-3.466 3.065-1.634-.188-2.747-1.939-2.42-3.877.262-1.939 1.831-3.315 3.466-3.065zm-7.075 16.99c1.644.205 2.719 2.196 2.53 4.394-.253 2.196-1.771 3.775-3.415 3.569-1.644-.206-2.782-2.196-2.529-4.394.253-2.197 1.77-3.776 3.414-3.57zm4.012 6.998c1.645.249 2.764 1.929 2.5 3.856-.197 1.928-1.776 3.297-3.421 3.11-1.645-.187-2.765-1.927-2.502-3.856.198-1.928 1.777-3.297 3.423-3.11zm-7.994-15c1.594.203 2.697 2.16 2.513 4.388-.306 2.228-1.777 3.78-3.433 3.577-1.654-.203-2.758-2.16-2.513-4.387.307-2.227 1.778-3.78 3.433-3.577zM52 49l1.948-9H55l-1.948 9H52zm6.953-9l-.523 2.21H60l-.208.85h-1.554l-.975 4.189c-.019.092-.035.164-.049.216a.44.44 0 0 0-.018.117c0 .164.05.277.153.343a.731.731 0 0 0 .413.109c.233 0 .453-.038.65-.112.208-.078.343-.133.402-.165l.128-.067.104.876-.047.029c-.127.08-.345.166-.665.263a3.636 3.636 0 0 1-1.04.142c-.37 0-.678-.084-.919-.25-.25-.171-.375-.433-.375-.78 0-.098.014-.206.043-.332l1.063-4.577h-.95l.207-.851h.936l.523-2.21h1.13zM60 41.644L60.963 40H62l-1.369 2-.631-.356zm4.534 1.513a1.22 1.22 0 0 0-.355.413 1.248 1.248 0 0 0-.13.59c0 .237.087.4.267.498.202.11.524.224.956.34.666.169 1.183.366 1.537.585.373.23.563.585.563 1.054 0 .342-.073.66-.217.95-.146.29-.35.541-.607.75a2.866 2.866 0 0 1-.922.488 3.723 3.723 0 0 1-1.16.175 3.64 3.64 0 0 1-1.368-.258 2.594 2.594 0 0 1-1.052-.759L62 47.926l.6-.712.064.072c.53.585 1.176.881 1.924.881.52 0 .95-.123 1.282-.368.326-.242.485-.557.485-.96a.605.605 0 0 0-.083-.33.812.812 0 0 0-.268-.245 2.503 2.503 0 0 0-.473-.213 9.682 9.682 0 0 0-.67-.2 10.803 10.803 0 0 1-.774-.25 2.446 2.446 0 0 1-.558-.28 1.115 1.115 0 0 1-.352-.392 1.145 1.145 0 0 1-.12-.54c0-.377.08-.718.237-1.016a2.38 2.38 0 0 1 .624-.755c.256-.202.558-.359.898-.463a3.653 3.653 0 0 1 1.06-.155c.476 0 .897.086 1.25.254.355.17.635.399.83.68l.044.062-.64.628-.057-.084a1.493 1.493 0 0 0-.668-.537 2.373 2.373 0 0 0-.93-.183 2.39 2.39 0 0 0-.64.086c-.202.055-.38.14-.531.251zM80 42.114l-1.175 5.566a.6.6 0 0 0-.023.146c0 .06.01.113.15.113h.108l-.199.927-.061.007-.185.025c-.064.01-.119.014-.164.014-.218-.019-.38-.08-.491-.182a.537.537 0 0 1-.172-.411c0-.074.01-.17.033-.282l.041-.215c-.295.32-.636.584-1.018.788-.482.259-.966.39-1.438.39-.38 0-.723-.078-1.018-.23a2.329 2.329 0 0 1-.755-.624 2.779 2.779 0 0 1-.472-.907A3.622 3.622 0 0 1 73 46.157c0-.53.104-1.052.307-1.55a4.72 4.72 0 0 1 .818-1.326c.34-.386.736-.699 1.178-.93A3.003 3.003 0 0 1 76.709 42c.545 0 1.002.153 1.36.456.277.236.493.515.645.831l.256-1.173H80zm-1.55 2.37a1.601 1.601 0 0 0-.188-.591 1.883 1.883 0 0 0-.899-.834 1.454 1.454 0 0 0-.591-.125c-.36 0-.706.091-1.029.273a3.107 3.107 0 0 0-.867.72c-.246.293-.446.629-.593.999-.145.367-.219.739-.219 1.105 0 .284.04.553.121.8.08.246.196.46.347.641.151.18.332.326.538.433.364.19.81.222 1.335.04a3.02 3.02 0 0 0 .676-.338c.214-.143.412-.313.586-.504.17-.188.297-.393.377-.61l.406-2.008zm3.765 3.79a1.12 1.12 0 0 0-.025.22c0 .341.168.494.543.494.09 0 .202-.013.334-.038.13-.026.259-.062.379-.103l.13-.047-.033.931-.057.022a3.6 3.6 0 0 1-.662.179 3.884 3.884 0 0 1-.66.068c-.357 0-.642-.093-.85-.278-.208-.185-.314-.451-.314-.788a1.83 1.83 0 0 1 .057-.397L82.887 40H84l-1.785 8.273zm3 0a1.12 1.12 0 0 0-.025.22c0 .341.168.494.543.494.09 0 .203-.013.334-.038.131-.026.259-.062.379-.103l.13-.047-.033.931-.057.022a3.6 3.6 0 0 1-.662.179 3.877 3.877 0 0 1-.66.068c-.357 0-.642-.093-.85-.278-.208-.185-.314-.451-.314-.788a1.83 1.83 0 0 1 .057-.397L85.887 40H87l-1.785 8.273zM98 42.113l-1.175 5.566a.6.6 0 0 0-.023.146c0 .06.01.113.15.113h.108l-.199.927-.061.007-.186.025a1.17 1.17 0 0 1-.163.014c-.218-.019-.38-.08-.491-.182a.537.537 0 0 1-.172-.411c0-.074.01-.17.033-.282l.041-.215c-.295.32-.636.584-1.018.788-.483.259-.966.39-1.439.39-.38 0-.722-.078-1.017-.23a2.322 2.322 0 0 1-.755-.624 2.791 2.791 0 0 1-.472-.907A3.622 3.622 0 0 1 91 46.157c0-.53.104-1.052.307-1.55.204-.496.479-.942.818-1.326.34-.386.736-.699 1.178-.93A3.003 3.003 0 0 1 94.709 42c.545 0 1.002.153 1.36.456.277.236.494.515.645.831l.256-1.173H98zm-1.549 2.37a1.638 1.638 0 0 0-.188-.591 1.883 1.883 0 0 0-.9-.834 1.454 1.454 0 0 0-.591-.125c-.36 0-.707.091-1.03.273a3.113 3.113 0 0 0-.866.72c-.246.293-.446.629-.593.999a2.98 2.98 0 0 0-.219 1.105c0 .284.04.553.121.8.08.246.196.46.347.641.151.18.332.326.538.433.364.19.81.222 1.335.04a3.02 3.02 0 0 0 .676-.338c.214-.143.412-.313.586-.504.17-.188.297-.393.377-.61l.407-2.008zm8.98-.926c.188.27.332.583.427.932.094.347.142.711.142 1.08 0 .585-.11 1.153-.327 1.688a4.979 4.979 0 0 1-.858 1.412c-.352.404-.762.73-1.218.969-.458.24-.934.361-1.413.361-.545 0-1.004-.147-1.365-.436a2.316 2.316 0 0 1-.654-.826l-.234 1.13H99L100.983 40h1.032l-.808 3.991a5.189 5.189 0 0 1 1.031-.894c.456-.294.95-.444 1.465-.444.381 0 .72.084 1.009.25.285.164.526.385.718.655zm-.51 2.171c0-.272-.036-.54-.109-.796a2.24 2.24 0 0 0-.313-.674 1.516 1.516 0 0 0-.504-.458c-.371-.206-.889-.226-1.353-.036-.219.091-.43.21-.628.355-.2.147-.392.323-.57.525a8.17 8.17 0 0 0-.497.62l-.448 2.274c.01.193.06.393.154.574.094.183.217.345.363.478.147.134.322.24.52.316.515.195 1.101.135 1.636-.162a3.19 3.19 0 0 0 .893-.737c.26-.304.47-.66.624-1.054.154-.394.232-.806.232-1.225zm8.351-2.884c.235.255.417.56.542.908.124.345.186.716.186 1.102 0 .532-.117 1.055-.35 1.553a4.53 4.53 0 0 1-2.29 2.242 3.953 3.953 0 0 1-1.632.35c-.425 0-.812-.078-1.15-.23a2.555 2.555 0 0 1-1.391-1.517 3.19 3.19 0 0 1-.187-1.096c0-.54.118-1.067.35-1.565a4.49 4.49 0 0 1 .94-1.32 4.725 4.725 0 0 1 1.356-.922 3.909 3.909 0 0 1 1.626-.35c.425 0 .81.077 1.144.23.332.152.62.359.856.615zm-3.37 5.221c.36 0 .722-.084 1.074-.249.355-.167.676-.395.954-.676.279-.283.508-.615.682-.987.173-.371.26-.77.26-1.184 0-.284-.043-.556-.129-.808a1.933 1.933 0 0 0-.366-.648 1.65 1.65 0 0 0-1.278-.58c-.36 0-.72.084-1.067.25a3.395 3.395 0 0 0-.955.682 3.519 3.519 0 0 0-.689 1c-.173.375-.26.775-.26 1.19 0 .284.044.553.13.8.084.245.208.46.365.642.156.178.345.32.56.42.215.098.456.148.719.148zM121 42l-1.255 5.568a.964.964 0 0 0-.04.225c0 .082.028.129.164.129h.117l-.215.941-.066.008a8.06 8.06 0 0 1-.184.02c-.313.029-.535-.025-.688-.151a.536.536 0 0 1-.194-.433c0-.028.002-.065.007-.112.005-.044.014-.106.028-.185a66.218 66.218 0 0 1 .075-.4 4.477 4.477 0 0 1-1.243.95c-.569.291-1.162.44-1.762.44-1.157 0-1.744-.61-1.744-1.81 0-.177.011-.364.035-.557a5.44 5.44 0 0 1 .116-.633l.909-4h1.098l-.025.107-.838 3.777c-.089.371-.133.701-.133.985 0 .795.35 1.182 1.069 1.182.242 0 .49-.042.74-.124.252-.083.5-.204.734-.36.238-.16.465-.35.675-.567.207-.212.391-.458.548-.728l.96-4.272H121zm3.953-2l-.523 2.21H126l-.208.85h-1.554l-.976 4.189a3.137 3.137 0 0 1-.048.215.423.423 0 0 0-.018.118c0 .164.05.276.152.343a.731.731 0 0 0 .413.109c.234 0 .454-.038.652-.112.255-.096.36-.142.402-.165l.127-.067.104.876-.047.029c-.129.081-.346.167-.665.263a3.646 3.646 0 0 1-1.042.142c-.367 0-.676-.084-.917-.25-.25-.171-.375-.433-.375-.78 0-.098.014-.206.043-.332l1.063-4.577h-.951l.208-.851h.936l.522-2.21h1.132zm13.418 2c.585 0 1.008.159 1.259.472.246.307.37.732.37 1.264 0 .374-.054.8-.16 1.268L138.961 49h-1.087l.83-3.853c.044-.194.077-.38.099-.553.02-.174.032-.333.032-.472 0-.77-.312-1.145-.954-1.145-.234 0-.47.045-.701.136-.234.09-.46.22-.673.385a3.702 3.702 0 0 0-.6.596c-.187.233-.35.49-.486.764L134.526 49h-1.088l.83-3.853c.047-.227.08-.417.105-.58.026-.175.04-.328.04-.47 0-.754-.312-1.12-.955-1.12-.471 0-.933.17-1.373.509-.444.34-.813.793-1.096 1.348l-.9 4.166H129l.024-.107 1.471-6.777h1.026l-.283 1.239c.319-.368.681-.671 1.08-.904.511-.3 1.041-.451 1.577-.451.556 0 .978.165 1.256.489.23.269.363.63.401 1.08.358-.477.767-.85 1.215-1.113.521-.302 1.06-.456 1.604-.456zm8.901.845c.235.256.418.562.542.908.123.346.186.717.186 1.102 0 .534-.118 1.056-.351 1.553a4.546 4.546 0 0 1-2.29 2.242 3.956 3.956 0 0 1-1.631.35c-.426 0-.812-.078-1.15-.23a2.554 2.554 0 0 1-.857-.616 2.724 2.724 0 0 1-.535-.9 3.206 3.206 0 0 1-.186-1.097c0-.54.118-1.067.35-1.564.233-.497.549-.942.94-1.322a4.725 4.725 0 0 1 1.357-.92 3.909 3.909 0 0 1 1.626-.351c.424 0 .809.077 1.143.23.33.151.62.358.856.615zm-3.37 5.221c.361 0 .722-.084 1.074-.249.356-.168.677-.395.954-.676.28-.284.51-.615.683-.987.172-.371.26-.77.26-1.184 0-.286-.045-.557-.13-.808a1.908 1.908 0 0 0-.366-.648 1.651 1.651 0 0 0-1.28-.58c-.358 0-.718.084-1.065.25a3.398 3.398 0 0 0-.955.682 3.526 3.526 0 0 0-.689 1c-.173.373-.26.773-.26 1.19 0 .285.043.554.129.8.085.245.209.46.366.642.156.178.345.32.56.42.215.098.456.148.72.148zM151.953 40l-.524 2.21H153l-.209.85h-1.553l-.976 4.189a3.45 3.45 0 0 1-.049.215.48.48 0 0 0-.018.118c0 .164.05.276.153.343a.737.737 0 0 0 .412.109c.235 0 .455-.038.653-.112.254-.096.359-.142.4-.165l.128-.067.104.876-.046.029c-.13.081-.347.167-.665.263a3.64 3.64 0 0 1-1.041.142c-.368 0-.677-.084-.918-.25-.248-.171-.375-.433-.375-.78 0-.098.014-.209.043-.332l1.063-4.577h-.952l.21-.851h.934l.524-2.21h1.131zm7.319 2.845c.235.256.417.562.541.908.124.346.187.717.187 1.102 0 .534-.119 1.056-.351 1.553a4.535 4.535 0 0 1-2.29 2.242 3.95 3.95 0 0 1-1.631.35c-.425 0-.812-.078-1.15-.23a2.557 2.557 0 0 1-.857-.616 2.72 2.72 0 0 1-.534-.9 3.19 3.19 0 0 1-.187-1.097c0-.54.119-1.067.351-1.564.233-.497.548-.942.938-1.322a4.727 4.727 0 0 1 1.358-.92 3.905 3.905 0 0 1 1.626-.351c.424 0 .808.077 1.143.23.33.151.619.358.856.615zm-3.37 5.221c.361 0 .723-.084 1.074-.249.356-.168.677-.395.955-.676.279-.284.508-.615.681-.987.173-.371.261-.77.261-1.184 0-.286-.044-.557-.13-.808a1.92 1.92 0 0 0-.366-.648 1.658 1.658 0 0 0-1.279-.58 2.47 2.47 0 0 0-1.067.25 3.394 3.394 0 0 0-.954.682 3.543 3.543 0 0 0-.69 1c-.171.373-.26.773-.26 1.19 0 .285.045.554.131.8.086.245.208.46.366.642.156.178.344.32.56.42.214.098.456.148.719.148zm8.891-5.09l-.072.003c-.556.017-1.08.18-1.559.481a3.398 3.398 0 0 0-1.156 1.25L161.09 49H160l.024-.109 1.475-6.877h1.038l-.293 1.333c.287-.35.603-.64.943-.867.45-.3.915-.461 1.381-.48h.003a2.065 2.065 0 0 1 .337.028l.092.018-.207.93zm4.739 2.913c.402.236.606.599.606 1.077 0 .348-.08.675-.235.97a2.353 2.353 0 0 1-.652.766c-.276.213-.611.38-.992.499a4.208 4.208 0 0 1-1.25.178 4.102 4.102 0 0 1-1.472-.264 2.785 2.785 0 0 1-1.133-.774l-.05-.058.646-.728.07.074c.57.597 1.265.9 2.072.9.558 0 1.022-.126 1.378-.376.352-.248.523-.568.523-.98 0-.137-.03-.25-.09-.337a.853.853 0 0 0-.288-.251 2.77 2.77 0 0 0-.51-.218 10.802 10.802 0 0 0-.72-.205 11.313 11.313 0 0 1-.833-.255 2.618 2.618 0 0 1-.602-.286 1.163 1.163 0 0 1-.377-.4 1.117 1.117 0 0 1-.131-.552 2.1 2.1 0 0 1 .256-1.038c.168-.303.394-.562.671-.77.274-.207.6-.366.966-.474.365-.104.75-.158 1.142-.158.512 0 .966.088 1.347.26.382.174.682.407.894.694l.046.064-.69.641-.06-.085a1.602 1.602 0 0 0-.72-.549 2.677 2.677 0 0 0-1-.187c-.238 0-.47.03-.69.088-.216.056-.41.143-.571.256-.16.112-.288.254-.382.422-.094.166-.14.369-.14.603 0 .242.093.409.287.509.218.112.564.228 1.029.346.717.174 1.274.375 1.655.598zm8.348-2.774c.217.265.385.578.498.933a3.6 3.6 0 0 1 .17 1.098c0 .535-.106 1.063-.311 1.569a4.569 4.569 0 0 1-.849 1.357 4.277 4.277 0 0 1-1.248.95 3.318 3.318 0 0 1-1.5.357c-.575 0-1.054-.152-1.426-.452a2.536 2.536 0 0 1-.685-.86L171.677 52h-1.084l2.098-9.654h.979l-.23 1.08a4.4 4.4 0 0 1 1.05-.792 3.18 3.18 0 0 1 1.523-.405c.39 0 .75.082 1.066.242.313.16.583.377.8.644zm-.454 2.173c0-.291-.043-.569-.127-.825a1.981 1.981 0 0 0-.367-.667 1.8 1.8 0 0 0-.566-.448c-.371-.19-.832-.239-1.398-.035-.243.089-.484.207-.713.352-.23.146-.44.32-.624.515-.18.194-.314.4-.398.611l-.441 2.034c.044.225.117.436.219.629.106.197.238.37.392.512.153.143.331.256.527.337.193.082.405.122.63.122.38 0 .747-.094 1.093-.278.349-.188.659-.434.918-.729.26-.296.47-.636.624-1.009.154-.369.23-.747.23-1.121zm7.846-2.443c.235.256.418.562.543.908.123.346.185.717.185 1.102 0 .534-.118 1.056-.35 1.553a4.548 4.548 0 0 1-2.29 2.242 3.956 3.956 0 0 1-1.632.35 2.78 2.78 0 0 1-1.15-.23 2.553 2.553 0 0 1-.857-.616c-.23-.256-.41-.56-.534-.9a3.19 3.19 0 0 1-.187-1.097c0-.54.118-1.067.35-1.564.233-.497.549-.942.94-1.322a4.706 4.706 0 0 1 1.358-.92 3.904 3.904 0 0 1 1.625-.351c.425 0 .809.077 1.143.23.33.151.62.358.856.615zm-3.37 5.221c.361 0 .722-.084 1.075-.249.355-.168.676-.395.953-.676.28-.284.51-.615.683-.987.172-.371.26-.77.26-1.184 0-.286-.044-.557-.13-.808a1.91 1.91 0 0 0-.366-.648 1.653 1.653 0 0 0-1.278-.58c-.36 0-.72.084-1.067.25a3.395 3.395 0 0 0-.955.682 3.514 3.514 0 0 0-.689 1c-.173.373-.26.773-.26 1.19 0 .285.044.554.13.8.085.245.208.46.365.642.157.178.345.32.562.42.213.098.454.148.717.148zm9.857-6.059c.052.005.102.013.148.02l.093.019-.208.93-.072.003c-.555.017-1.079.18-1.558.481a3.387 3.387 0 0 0-1.156 1.25L188.09 49H187l1.498-6.986h1.039l-.293 1.333c.287-.35.603-.64.943-.867.45-.3.914-.461 1.38-.48h.004c.076 0 .137.003.188.007zm1.503 5.242a3.067 3.067 0 0 1-.049.215.448.448 0 0 0-.018.118c0 .164.05.276.153.343a.735.735 0 0 0 .412.109c.235 0 .455-.038.652-.112.256-.096.36-.142.402-.165l.127-.067.104.876-.046.029c-.13.081-.347.167-.665.263a3.641 3.641 0 0 1-1.042.142c-.368 0-.676-.084-.917-.25-.25-.171-.375-.433-.375-.78 0-.098.014-.209.043-.332l1.062-4.577h-.95l.207-.851h.937l.522-2.21h1.132l-.523 2.21H196l-.208.85h-1.555l-.975 4.189z" fill="#FFFFFF" fill-rule="evenodd"/></svg>
